<svg width="34" height="40" viewBox="0 0 34 40" fill="none" xmlns="http://www.w3.org/2000/svg">
<path d="M27.6093 21.0288C27.5632 16.0332 31.8122 13.6028 32.0065 13.4896C29.6001 10.075 25.8702 9.60845 24.5595 9.57125C21.4269 9.2504 18.3882 11.3956 16.7924 11.3956C15.1648 11.3956 12.7074 9.60225 10.059 9.65495C6.65082 9.7061 3.46245 11.6265 1.71378 14.6087C-1.89503 20.6894 0.796449 29.6251 4.25397 34.5402C5.98352 36.9473 8.00452 39.635 10.6498 39.5405C13.2378 39.4366 14.2045 37.9347 17.3276 37.9347C20.422 37.9347 21.3297 39.5405 24.0276 39.48C26.8051 39.4366 28.5537 37.062 30.2228 34.6332C32.2215 31.8742 33.0242 29.1571 33.056 29.0176C32.9907 28.9959 27.6619 27.0165 27.6093 21.0288Z" fill="white"/>
<path d="M22.513 6.33795C23.905 4.6438 24.8573 2.33895 24.593 0C22.5783 0.0868 20.0589 1.35625 18.608 3.0132C17.3244 4.4733 16.1777 6.8665 16.4739 9.1171C18.737 9.2814 21.0606 8.00575 22.513 6.33795Z" fill="white"/>
</svg>
