<svg width="36" height="36" viewBox="0 0 36 36" fill="none" xmlns="http://www.w3.org/2000/svg">
<path d="M0 9.059V13H5.628L0 9.059ZM4.664 31H13V25.163L4.664 31ZM23 25.164V31H31.335L23 25.164ZM0 23V26.941L5.63 23H0ZM31.337 5H23V10.837L31.337 5ZM36 26.942V23H30.369L36 26.942ZM36 13V9.059L30.371 13H36ZM13 5H4.664L13 10.837V5Z" fill="#00247D"/>
<path d="M25.14 23L34.852 29.801C35.3255 29.3117 35.6662 28.7097 35.842 28.052L28.627 23H25.14ZM13 23H10.859L1.14801 29.8C1.66901 30.33 2.33701 30.709 3.08601 30.885L13 23.943V23ZM23 13H25.141L34.852 6.19999C34.3217 5.66279 33.6501 5.28663 32.915 5.11499L23 12.057V13ZM10.859 13L1.14801 6.19999C0.67418 6.68913 0.333075 7.29114 0.157013 7.94899L7.37201 13H10.859Z" fill="#CF1B2B"/>
<path d="M36 21H21V31H23V25.164L31.335 31H32C32.5312 30.9995 33.0569 30.8933 33.5466 30.6874C34.0363 30.4815 34.48 30.1802 34.852 29.801L25.14 23H28.627L35.842 28.052C35.935 27.715 36 27.366 36 27V26.942L30.369 23H36V21ZM0 21V23H5.63L0 26.941V27C0 28.091 0.439 29.078 1.148 29.8L10.859 23H13V23.943L3.086 30.884C3.38 30.954 3.684 31 4 31H4.664L13 25.163V31H15V21H0ZM36 9C36.0009 7.95192 35.5884 6.94577 34.852 6.2L25.141 13H23V12.057L32.915 5.115C32.6155 5.04152 32.3084 5.00293 32 5H31.337L23 10.837V5H21V15H36V13H30.371L36 9.059V9ZM13 5V10.837L4.664 5H4C3.46875 5.00061 2.94294 5.10703 2.45327 5.31307C1.9636 5.5191 1.51988 5.82061 1.148 6.2L10.859 13H7.372L0.157 7.949C0.0581567 8.29079 0.00535759 8.64424 0 9L0 9.059L5.628 13H0V15H15V5H13Z" fill="#EEEEEE"/>
<path d="M21 15V5H15V15H0V21H15V31H21V21H36V15H21Z" fill="#CF1B2B"/>
</svg>
