<svg width="163" height="126" viewBox="0 0 163 126" fill="none" xmlns="http://www.w3.org/2000/svg">
<g clip-path="url(#clip0_22_213)">
<path fill-rule="evenodd" clip-rule="evenodd" d="M71.6621 24.153C57.9909 51.9128 46.7649 78.1519 13.2471 80.5688C-14.1156 82.5414 4.68546 124.967 35.3821 105.219C39.6978 102.442 71.9868 124.549 89.1287 109.93C101.427 99.4408 107.475 64.8996 132.915 65.4805C165.7 66.2276 168.781 26.5373 156.006 12.193C144.084 -1.19296 88.922 -10.8946 71.6621 24.153Z" fill="#FAE3C0"/>
<path d="M69.7777 93.391C69.8398 93.5603 69.7528 93.7482 69.5835 93.8119C69.4141 93.874 69.2262 93.787 69.1625 93.6177C66.4919 86.4091 64.6665 79.4241 63.4345 72.5944C63.0772 70.6094 62.7696 68.6367 62.5055 66.6781L55.8781 61.8677C55.8579 61.8832 55.8392 61.8972 55.819 61.9111C55.1261 62.4004 54.1381 62.1923 53.6114 61.4467C53.0848 60.7012 53.2184 59.7009 53.9113 59.2116C54.6026 58.7223 55.5922 58.9305 56.1189 59.676C56.4886 60.1979 56.5321 60.8472 56.2882 61.3566L62.389 65.785C62.1435 63.8667 61.94 61.9608 61.7738 60.0643C61.7505 60.0426 61.7287 60.0177 61.7116 59.9898L56.3581 51.1704C56.327 51.1704 56.2975 51.1657 56.2664 51.1549L51.2997 49.583C51.2081 49.7134 51.0931 49.8284 50.958 49.9247C50.2651 50.414 49.277 50.2058 48.7504 49.4603C48.2237 48.7147 48.3573 47.7144 49.0502 47.2251C49.7431 46.7359 50.7311 46.944 51.2578 47.6895C51.5374 48.0856 51.6307 48.5532 51.553 48.9787L55.8548 50.3394L51.9864 43.9664C51.974 43.9478 51.9647 43.9276 51.9585 43.9058C51.2935 44.2025 50.4624 43.9648 49.9948 43.3032C49.4681 42.5576 49.6017 41.5573 50.2946 41.068C50.9875 40.5787 51.9755 40.7869 52.5022 41.5324C52.9543 42.1739 52.9201 43.0018 52.4618 43.533C52.496 43.5579 52.5255 43.589 52.5472 43.6278L61.6573 58.6338C61.4957 56.5897 61.373 54.5565 61.2844 52.5326C61.2813 52.4813 61.2922 52.4316 61.3108 52.3881C60.9411 52.2903 60.5962 52.0604 60.3507 51.7125C59.8241 50.9669 59.9577 49.9666 60.6506 49.4773C61.3434 48.9881 62.3315 49.1962 62.8582 49.9418C63.3848 50.6873 63.2512 51.6876 62.5583 52.1769C62.3657 52.3136 62.1482 52.3959 61.926 52.427C61.9338 52.4518 61.9369 52.4767 61.9385 52.5031C62.2103 58.6866 62.7882 64.9478 63.8819 71.3441L67.6571 63.7937C67.6711 63.7673 67.6866 63.7424 67.7068 63.7207C67.5561 63.612 67.4209 63.4753 67.306 63.3137C66.7793 62.5682 66.9129 61.5679 67.6058 61.0786C68.2971 60.5893 69.2867 60.7975 69.8134 61.543C70.3401 62.2886 70.2065 63.2889 69.5136 63.7782C69.1454 64.0375 68.6948 64.1012 68.2723 63.991C68.2676 64.0236 68.2567 64.0546 68.2412 64.0857L64.1321 72.3055C64.115 72.3397 64.0917 72.3708 64.0653 72.3956L64.0792 72.4764C65.3034 79.2641 67.1195 86.2134 69.7777 93.391Z" fill="#E8A000"/>
<path d="M60.1488 69.1743C60.2404 69.1976 60.2964 69.2892 60.2746 69.3809C60.2513 69.4725 60.1596 69.5284 60.068 69.5067L52.7849 67.7111C52.6933 67.6878 52.6374 67.5962 52.6591 67.5045C52.6809 67.4129 52.7741 67.357 52.8657 67.3787L60.1488 69.1743Z" fill="#E8A000"/>
<path fill-rule="evenodd" clip-rule="evenodd" d="M60.5139 83.9457C62.8861 89.8823 67.1584 92.5166 73.6957 91.2087C73.6957 91.2087 77.62 82.9081 68.0113 75.4681C66.1097 67.5573 61.78 62.6692 56.0925 59.4711C51.8746 53.0826 45.7039 51.4408 37.8973 53.7769C47.7219 52.9117 40.7651 63.4366 48.1818 63.4459C48.4537 73.6756 53.018 80.1076 60.5139 83.9473" fill="#00BEB0"/>
<path d="M70.6135 84.7624L70.0635 79.7935C70.048 79.6522 70.149 79.5264 70.2904 79.5109C70.4317 79.4953 70.5576 79.5963 70.5731 79.7376L71.2551 85.8978C72.4094 87.9652 73.5062 90.0668 74.5486 92.1978C74.6108 92.3252 74.558 92.479 74.429 92.5411C74.3016 92.6032 74.1478 92.5504 74.0857 92.4215C72.063 88.2898 69.8414 84.27 67.3775 80.3869L67.3526 80.3822L61.4382 78.9796C61.3 78.947 61.2145 78.8088 61.2471 78.6705C61.2798 78.5323 61.418 78.4469 61.5563 78.4795L66.9829 79.7656C66.1098 78.4096 65.2071 77.0707 64.2719 75.7504C64.2284 75.7178 64.1942 75.6712 64.1771 75.6184C63.5682 74.761 62.9452 73.9098 62.3082 73.0664C61.9882 72.6424 61.6635 72.2199 61.3357 71.8005L55.5006 70.4165C55.3623 70.3839 55.2769 70.2457 55.3095 70.1074C55.3421 69.9692 55.4804 69.8838 55.6186 69.9164L60.8246 71.1512C59.8691 69.9459 58.8826 68.7592 57.8635 67.5896C57.7501 67.5679 57.6631 67.4716 57.6569 67.352C56.6844 66.243 55.6839 65.1495 54.6508 64.0746L50.4593 62.5944C50.3257 62.5478 50.2558 62.4002 50.3024 62.2666C50.349 62.133 50.4966 62.0631 50.6302 62.1097L53.846 63.2467C51.4442 60.8019 48.8809 58.4472 46.1404 56.1934C46.0317 56.1033 46.0161 55.9418 46.1063 55.833C46.1964 55.7243 46.3579 55.7088 46.4667 55.7989C49.5023 58.2949 52.3205 60.9122 54.9444 63.6413C54.9817 63.6646 55.0128 63.6972 55.0329 63.7344C55.9278 64.6664 56.7993 65.6123 57.6476 66.5707L57.6181 62.8196C57.6181 62.6782 57.7299 62.5617 57.8713 62.5617C58.0127 62.5617 58.1276 62.6736 58.1292 62.8149L58.1634 67.1578C59.7557 68.9813 61.2705 70.8499 62.7137 72.7573C63.2031 73.4035 63.6831 74.0558 64.1569 74.7113L64.1274 71.0239C64.1274 70.8825 64.2393 70.766 64.3807 70.766C64.522 70.766 64.637 70.8779 64.6385 71.0192L64.6743 75.4367C66.812 78.4546 68.7834 81.5674 70.6104 84.7609" fill="#002F40"/>
<path fill-rule="evenodd" clip-rule="evenodd" d="M50.7016 89.4941C49.2615 89.171 47.8307 90.0766 47.5075 91.518C47.1844 92.9579 48.0901 94.3884 49.5318 94.7115C50.972 95.0346 52.4028 94.129 52.7259 92.6876C53.0491 91.2477 52.1433 89.8172 50.7016 89.4941Z" fill="#64A693"/>
<path fill-rule="evenodd" clip-rule="evenodd" d="M44.301 88.2561C43.4574 88.0666 42.6216 88.5978 42.4321 89.4397C42.2426 90.2831 42.7739 91.1188 43.6159 91.3083C44.4595 91.4978 45.2953 90.9666 45.4848 90.1247C45.6744 89.2813 45.143 88.4456 44.301 88.2561Z" fill="#64A693"/>
<path fill-rule="evenodd" clip-rule="evenodd" d="M39.5596 92.5054C39.2706 92.4402 38.9832 92.6219 38.918 92.9124C38.8527 93.2013 39.0345 93.4887 39.325 93.5539C39.614 93.6191 39.9014 93.4374 39.9666 93.1469C40.0319 92.858 39.8501 92.5707 39.5596 92.5054Z" fill="#64A693"/>
<path fill-rule="evenodd" clip-rule="evenodd" d="M145.428 86.5475C144.463 72.0323 89.1085 73.8481 78.0271 76.4373C69.4018 78.2593 64.5376 81.7681 63.4315 86.9637C62.0535 98.7638 63.8913 109.706 72.1733 118.93C77.8406 123.756 83.1041 123.128 88.8149 122.119C107.375 114.199 144.421 104.607 145.428 86.5459" fill="#00BEB0"/>
<path fill-rule="evenodd" clip-rule="evenodd" d="M117.994 75.2662C102.003 73.9242 83.8668 75.0736 78.027 76.4373C75.6066 76.9484 73.4829 77.593 71.6544 78.3696C75.1203 80.9014 81.1699 83.5047 86.0589 84.5422C92.663 85.9433 111.668 82.4298 117.995 75.2662" fill="#0C948B"/>
<path fill-rule="evenodd" clip-rule="evenodd" d="M67.3682 112.436L63.7064 116.592C61.2037 111.785 53.9362 93.7639 63.3289 90.019C61.9665 101.558 66.1191 108.963 67.3682 112.436Z" fill="#F8444F"/>
<path fill-rule="evenodd" clip-rule="evenodd" d="M119.176 86.0439L80.9337 94.3523C80.1974 94.5123 79.7266 95.2454 79.8866 95.9816C80.0467 96.7179 80.7799 97.1885 81.5163 97.0285L119.759 88.7202C120.495 88.5602 120.966 87.8271 120.806 87.0908C120.646 86.3546 119.912 85.8839 119.176 86.0439Z" fill="#F8444F"/>
<path fill-rule="evenodd" clip-rule="evenodd" d="M43.6517 120.557C43.0411 123.596 56.4591 118.363 61.5517 116.418C58.746 109.2 56.5694 104.251 57.0992 95.4443C41.0122 100.141 55.5488 98.5291 51.2703 102.678C51.0885 102.774 42.0966 105.126 36.4634 107.352C30.8023 109.59 33.3112 112.038 36.6452 111.359C40.021 110.752 52.9854 107.425 45.6526 112.198C36.5613 115.217 24.3939 119.42 18.3801 121.258C16.1461 124.004 21.933 123.667 23.3965 123.372L47.4998 116.875C48.985 118.926 43.9888 118.897 43.6517 120.557Z" fill="#FFBA55"/>
<path fill-rule="evenodd" clip-rule="evenodd" d="M80.7862 97.319L120.771 88.248C121.037 108.888 63.5682 128.804 59.8909 122.71C55.5721 119.531 78.2787 105.64 80.7862 97.319Z" fill="#FFBA55"/>
<path fill-rule="evenodd" clip-rule="evenodd" d="M145.428 86.5471C145.209 78.3817 124.444 75.7039 124.413 75.9633C123.506 83.6317 126.198 93.1019 131.558 103.903C131.719 104.229 145.906 95.716 145.428 86.5471Z" fill="#F8444F"/>
<path fill-rule="evenodd" clip-rule="evenodd" d="M76.0509 24.2867C71.8455 22.5719 71.6357 18.246 72.338 18.4853C72.6953 18.6064 73.3182 18.8875 73.9195 19.0304C84.7679 21.6384 90.2146 17.575 92.5512 9.67209C94.2539 3.63769 98.0166 -0.06216 106.943 2.08754C109.298 2.65448 110.889 4.0229 112.14 6.06388C116.502 13.1887 111.815 25.8368 108.595 32.3123C102.648 38.1495 71.2365 41.5573 68.6436 30.6674C68.0579 28.2055 71.1402 30.6659 75.1825 29.2757C72.2976 28.8688 69.004 29.0505 67.8529 24.4202C67.4924 22.9679 68.322 21.8853 69.0584 22.4321C71.1075 23.9512 73.0712 24.6206 76.0509 24.2867Z" fill="#621014"/>
<path fill-rule="evenodd" clip-rule="evenodd" d="M108.282 12.0317L95.7406 13.0351C92.2016 19.6116 92.1736 26.4382 94.9048 28.751L104.27 29.5027C108.199 29.8647 114.386 21.7846 108.282 12.0317Z" fill="#4A0B0E"/>
<path fill-rule="evenodd" clip-rule="evenodd" d="M99.7767 27.0374C97.9467 25.9657 96.028 24.0008 95.2854 22.1012C94.7231 20.6613 95.4594 14.7885 95.7934 11.6897L108.13 11.1616L109.323 16.4769C111.512 12.2318 112.901 15.8975 111.714 18.6934C111.125 20.0804 110.008 20.9564 109.648 20.3817C109.143 23.5395 106.771 25.7777 103.03 27.4087C102.046 27.8374 101.204 27.8746 99.7752 27.0374" fill="#FF8F69"/>
<path fill-rule="evenodd" clip-rule="evenodd" d="M96.7178 24.4218C96.0979 23.6824 95.5899 22.8872 95.2839 22.1012C95.1736 21.8185 95.113 21.365 95.0897 20.7949H95.1658C96.3651 20.7949 97.3376 21.7486 97.3376 22.9275C97.3376 23.5085 97.1015 24.035 96.7178 24.4202" fill="#FFBA55"/>
<path fill-rule="evenodd" clip-rule="evenodd" d="M108.8 22.8175C108.13 24.0026 107.119 25.0247 105.811 25.9085C105.433 25.5248 105.202 25.0029 105.202 24.4267C105.202 23.2477 106.174 22.2925 107.374 22.2925C107.919 22.2925 108.418 22.4897 108.8 22.8175Z" fill="#FFBA55"/>
<path fill-rule="evenodd" clip-rule="evenodd" d="M108.716 11.0935C107.663 5.13366 104.467 2.83329 98.9394 4.46576C96.9446 5.05445 96.1725 5.89942 95.3538 7.75245C93.0437 12.9823 95.085 13.9297 98.5168 11.5113C99.6307 12.8363 102.109 13.1888 103.348 11.2799C106.013 12.931 107.868 12.6607 108.716 11.0935Z" fill="#621014"/>
<path d="M98.697 34.0864C96.7846 34.1765 95.4501 33.3548 93.8375 30.3726C91.4637 30.5931 93.3544 35.8369 94.4263 38.3889C96.1523 37.4041 97.5505 36.1445 98.6986 34.0864H98.697Z" stroke="#332C2B" stroke-width="0.57" stroke-linejoin="round"/>
<path d="M98.8042 34.2602C100.712 34.4186 102.074 33.6435 103.791 30.7188C106.156 31.0216 104.082 36.1971 102.921 38.7087C101.231 37.6634 99.8777 36.3555 98.8027 34.2586L98.8042 34.2602Z" stroke="#332C2B" stroke-width="0.57" stroke-linejoin="round"/>
<path fill-rule="evenodd" clip-rule="evenodd" d="M75.4202 50.7775L74.4912 38.3919C70.8372 37.0297 65.6437 29.324 63.7142 23.5303C64.5422 23.4946 65.7602 21.9382 65.4231 20.6242C65.0347 19.1082 64.275 19.8087 63.9068 20.5621C63.2605 21.8854 62.1 22.005 61.4227 20.8044C61.4957 19.8087 61.7583 18.8597 63.217 18.8379C63.8136 18.8302 64.0482 19.0803 63.8975 18.2384C63.6008 16.5919 60.9691 16.9694 60.4315 17.8951C59.7495 15.6662 59.8117 9.10215 58.3871 11.2068L58.8205 18.1421C57.9536 16.3465 57.0246 10.7113 56.2183 12.7538L57.023 19.5043C56.2804 18.4931 55.1029 13.7044 54.7937 16.4692C55.5487 22.6294 57.7812 23.6173 60.3678 25.4486C61.4398 32.7271 67.7379 51.127 75.4186 50.776" fill="#FF8F69"/>
<mask id="mask0_22_213" style="mask-type:luminance" maskUnits="userSpaceOnUse" x="54" y="10" width="22" height="41">
<path d="M75.4202 50.7775L74.4912 38.3919C70.8372 37.0297 65.6437 29.324 63.7142 23.5303C64.5422 23.4946 65.7602 21.9382 65.4231 20.6242C65.0347 19.1082 64.275 19.8087 63.9068 20.5621C63.2605 21.8854 62.1 22.005 61.4227 20.8044C61.4957 19.8087 61.7583 18.8597 63.217 18.8379C63.8136 18.8302 64.0482 19.0803 63.8975 18.2384C63.6008 16.5919 60.9691 16.9694 60.4315 17.8951C59.7495 15.6662 59.8117 9.10215 58.3871 11.2068L58.8205 18.1421C57.9536 16.3465 57.0246 10.7113 56.2183 12.7538L57.023 19.5043C56.2804 18.4931 55.1029 13.7044 54.7937 16.4692C55.5487 22.6294 57.7812 23.6173 60.3678 25.4486C61.4398 32.7271 67.7379 51.127 75.4186 50.776" fill="white"/>
</mask>
<g mask="url(#mask0_22_213)">
<path fill-rule="evenodd" clip-rule="evenodd" d="M73.2561 50.925L73.4332 37.8311L70.5824 48.9166L73.2561 50.925Z" fill="#EF5F2B"/>
</g>
<path fill-rule="evenodd" clip-rule="evenodd" d="M64.9306 39.9496C66.0725 42.4302 67.3852 44.7663 68.8238 46.6302C69.759 45.9188 70.3634 44.7911 70.3634 43.5221C70.3634 41.3693 68.6265 39.625 66.4826 39.625C65.9311 39.625 65.4044 39.7415 64.9306 39.9496Z" fill="#F8444F"/>
<path fill-rule="evenodd" clip-rule="evenodd" d="M128.008 19.4778L134.292 20.374C134.764 20.4408 135.095 20.8819 135.027 21.3541L133.192 34.2011C133.125 34.6733 132.684 35.0041 132.212 34.9358L125.928 34.038C125.455 33.9712 125.124 33.5301 125.193 33.0579L127.028 20.2109C127.094 19.7387 127.536 19.4079 128.008 19.4762" fill="#5D6AB0"/>
<path fill-rule="evenodd" clip-rule="evenodd" d="M128.336 20.4299L133.653 21.2019C134.053 21.2594 134.334 21.6337 134.278 22.0329L132.723 33.12C132.667 33.5192 132.294 33.7988 131.895 33.7413L126.577 32.9694C126.178 32.9119 125.897 32.5376 125.954 32.1368L127.509 21.0497C127.565 20.6505 127.938 20.3709 128.337 20.4284" fill="white"/>
<path fill-rule="evenodd" clip-rule="evenodd" d="M114.989 42.8682L104.459 50.4232C106.771 54.7786 111.5 60.3734 116.847 55.7493L127.748 37.5436C129.462 36.8214 130.966 36.4408 131.626 34.7897L126.633 34.0178C125.314 33.8143 125.575 33.1604 125.609 32.3946L125.953 29.3067C127.564 28.4804 130.288 24.9297 127.997 25.158C121.882 26.6678 123.195 30.686 124.714 35.0041L115.92 44.2925L114.991 42.8682H114.989Z" fill="#FF8F69"/>
<mask id="mask1_22_213" style="mask-type:luminance" maskUnits="userSpaceOnUse" x="104" y="25" width="28" height="33">
<path d="M114.989 42.8682L104.459 50.4232C106.771 54.7786 111.5 60.3734 116.847 55.7493L127.748 37.5436C129.462 36.8214 130.966 36.4408 131.626 34.7897L126.633 34.0178C125.314 33.8143 125.575 33.1604 125.609 32.3946L125.953 29.3067C127.564 28.4804 130.288 24.9297 127.997 25.158C121.882 26.6678 123.195 30.686 124.714 35.0041L115.92 44.2925L114.991 42.8682H114.989Z" fill="white"/>
</mask>
<g mask="url(#mask1_22_213)">
<path fill-rule="evenodd" clip-rule="evenodd" d="M107.069 54.5582L115.488 43.499L105.621 52.772L107.069 54.5582Z" fill="#EF5F2B"/>
</g>
<path fill-rule="evenodd" clip-rule="evenodd" d="M112.047 57.4361C113.549 57.6458 115.168 57.2015 116.849 55.7492L118.39 53.1739C117.685 52.4486 116.701 51.9966 115.612 51.9966C113.468 51.9966 111.731 53.7409 111.731 55.8937C111.731 56.4404 111.845 56.9623 112.047 57.4345" fill="#F8444F"/>
<mask id="mask2_22_213" style="mask-type:luminance" maskUnits="userSpaceOnUse" x="111" y="51" width="8" height="7">
<path d="M112.047 57.4361C113.549 57.6458 115.168 57.2015 116.849 55.7492L118.39 53.1739C117.685 52.4486 116.701 51.9966 115.612 51.9966C113.468 51.9966 111.731 53.7409 111.731 55.8937C111.731 56.4404 111.845 56.9623 112.047 57.4345" fill="white"/>
</mask>
<g mask="url(#mask2_22_213)">
<path fill-rule="evenodd" clip-rule="evenodd" d="M107.069 54.5577L115.488 43.4985L105.621 52.7715L107.069 54.5577Z" fill="#EF5F2B"/>
</g>
<path fill-rule="evenodd" clip-rule="evenodd" d="M103.401 29.1482L94.8644 28.6201L86.6849 30.9888C85.2666 31.1271 84.9263 31.3368 83.7534 32.1149C80.5344 34.2507 76.5558 36.9223 73.559 36.9642C73.2219 41.4997 72.0132 46.9392 73.0308 51.0646C73.2048 51.7683 75.8924 50.8767 76.0385 51.6036C75.5382 52.1504 72.8288 54.0158 72.1934 54.2581C68.35 55.7135 72.0194 58.8962 76.4408 59.0624L97.768 57.9176L103.257 51.1485L104.509 53.6803L115.662 43.2161L110.478 33.269C110.021 32.6601 109.406 30.8273 108.329 30.5586L103.4 29.1467L103.401 29.1482Z" fill="#FFBA55"/>
<path fill-rule="evenodd" clip-rule="evenodd" d="M108.36 73.149C118.396 73.1086 120.312 55.8753 105.031 55.8364L76.3554 59.1014C68.4681 66.4545 72.1375 77.4981 80.5096 76.431C89.7362 75.2552 98.7996 74.1726 108.36 73.149Z" fill="#5D6AB0"/>
<path fill-rule="evenodd" clip-rule="evenodd" d="M97.9762 15.3335C98.2278 15.3335 98.4329 15.5385 98.4329 15.7902V16.4751C98.4329 16.7268 98.2278 16.9318 97.9762 16.9318C97.7245 16.9318 97.5194 16.7268 97.5194 16.4751V15.7902C97.5194 15.5385 97.7245 15.3335 97.9762 15.3335Z" fill="#621014"/>
<path fill-rule="evenodd" clip-rule="evenodd" d="M104.99 15.6182C105.241 15.6182 105.447 15.8232 105.447 16.0748V16.7598C105.447 17.0114 105.242 17.2165 104.99 17.2165C104.739 17.2165 104.534 17.0114 104.534 16.7598V16.0748C104.534 15.8232 104.739 15.6182 104.99 15.6182Z" fill="#621014"/>
<path fill-rule="evenodd" clip-rule="evenodd" d="M99.1693 14.0754C98.4391 13.3391 97.4713 13.2692 96.9229 14.4482C96.7784 14.7588 97.0938 14.8784 97.1357 14.8194C97.6437 14.0909 98.3941 14.1562 98.8912 14.5507C98.9937 14.6315 99.5608 14.4699 99.1693 14.0754Z" fill="#621014"/>
<path fill-rule="evenodd" clip-rule="evenodd" d="M106.053 14.3102C105.323 13.574 104.355 13.5041 103.807 14.683C103.662 14.9952 103.978 15.1148 104.019 15.0543C104.528 14.3258 105.278 14.391 105.775 14.7855C105.878 14.8663 106.445 14.7048 106.053 14.3102Z" fill="#621014"/>
<path d="M111.124 17.373C111.184 17.4242 111.276 17.4165 111.327 17.3544C111.379 17.2938 111.371 17.2021 111.309 17.1509C111.186 17.0484 111.06 16.9971 110.934 16.9862C110.796 16.9754 110.662 17.0126 110.537 17.0872C110.422 17.1555 110.311 17.2549 110.213 17.373C109.898 17.7504 109.667 18.3438 109.636 18.7259C109.629 18.8051 109.688 18.875 109.768 18.8812C109.847 18.8874 109.917 18.8284 109.923 18.7492C109.951 18.4152 110.154 17.8933 110.434 17.5578C110.513 17.4631 110.597 17.3854 110.684 17.3342C110.76 17.2891 110.836 17.2658 110.913 17.272C110.981 17.2782 111.052 17.3078 111.125 17.3699" fill="#EF5F2B"/>
<path fill-rule="evenodd" clip-rule="evenodd" d="M96.665 17.698C96.87 17.7772 96.9741 18.0086 96.8949 18.2136L96.6417 18.8722C96.5624 19.0773 96.331 19.1813 96.1259 19.1021C95.9208 19.0229 95.8167 18.7915 95.896 18.5864L96.1492 17.9278C96.2284 17.7228 96.4599 17.6187 96.665 17.698Z" fill="#F8444F"/>
<path fill-rule="evenodd" clip-rule="evenodd" d="M97.7742 18.2476C98.0072 18.3361 98.1253 18.6001 98.0352 18.8331L97.7493 19.5802C97.6608 19.8132 97.3967 19.9313 97.1636 19.8412C96.9306 19.7527 96.8125 19.4886 96.9026 19.2556L97.1885 18.5085C97.2771 18.2755 97.5412 18.1575 97.7742 18.2476Z" fill="#F8444F"/>
<path fill-rule="evenodd" clip-rule="evenodd" d="M104.11 22.5795C102.565 24.7603 99.8699 24.8162 98.5727 21.8961C98.1688 20.9874 98.147 20.8647 98.9999 20.9672C100.244 21.4565 101.75 21.7734 104.03 21.5714C104.759 21.6584 104.602 21.8852 104.11 22.5811" fill="#F3EFEC"/>
<path d="M101.486 16.4662C101.492 16.3249 101.382 16.2037 101.24 16.1975C101.099 16.1913 100.978 16.3016 100.971 16.4429L100.906 17.8471C100.481 18.1034 100.266 18.3876 100.196 18.6579C100.148 18.8427 100.165 19.0198 100.229 19.1767C100.289 19.3273 100.393 19.4593 100.521 19.5634C100.777 19.7731 101.144 19.8787 101.47 19.8088C101.61 19.7793 101.698 19.6426 101.669 19.5028C101.639 19.363 101.503 19.2745 101.363 19.304C101.19 19.3413 100.99 19.2792 100.847 19.1627C100.783 19.1114 100.734 19.0493 100.707 18.9809C100.682 18.9204 100.676 18.8536 100.695 18.7852C100.738 18.6175 100.911 18.4233 101.279 18.2261C101.357 18.1841 101.41 18.1049 101.414 18.0102L101.486 16.4631V16.4662Z" fill="#621014"/>
<path fill-rule="evenodd" clip-rule="evenodd" d="M106.348 18.1311C106.143 18.2103 106.039 18.4417 106.118 18.6467L106.372 19.3053C106.451 19.5104 106.682 19.6144 106.887 19.5352C107.092 19.456 107.196 19.2246 107.117 19.0195L106.864 18.3609C106.785 18.1559 106.553 18.0519 106.348 18.1311Z" fill="#F8444F"/>
<path fill-rule="evenodd" clip-rule="evenodd" d="M105.241 18.6797C105.008 18.7682 104.889 19.0323 104.98 19.2653L105.265 20.0124C105.354 20.2454 105.618 20.3634 105.851 20.2733C106.084 20.1848 106.202 19.9207 106.112 19.6877L105.826 18.9406C105.738 18.7076 105.474 18.5896 105.241 18.6797Z" fill="#F8444F"/>
<path fill-rule="evenodd" clip-rule="evenodd" d="M92.1535 96.4806L88.7264 89.1274L80.1554 93.6676L76.7143 103.851C75.8583 106.386 81.5256 107.4 84.3251 107.928C93.3435 109.624 97.3983 110.084 106.65 110.839C107.602 111.463 111.776 99.9117 102.579 100.379C99.0373 99.9334 97.5629 99.3308 92.1519 96.4806" fill="#3A3937"/>
<path fill-rule="evenodd" clip-rule="evenodd" d="M77.1213 102.642L76.9318 103.203C80.4024 105.025 85.5835 106.348 91.2835 107.341C96.6199 108.27 102.427 108.909 107.709 109.399C107.777 109.222 107.844 109.031 107.908 108.832C102.609 108.344 96.7628 107.703 91.3813 106.766C85.6876 105.775 80.5282 104.456 77.1213 102.644" fill="#F7E9D4"/>
<path fill-rule="evenodd" clip-rule="evenodd" d="M100.42 100.026C99.3495 99.7965 98.3754 99.4827 97.1994 98.9795L96.7349 101.403C96.5609 102.31 97.1606 103.195 98.0694 103.369C98.9767 103.543 99.8622 102.943 100.036 102.035L100.421 100.026H100.42Z" fill="#F7E9D4"/>
<path fill-rule="evenodd" clip-rule="evenodd" d="M116.08 65.6656C116.757 58.4414 106.602 51.4875 98.739 61.7141L85.4794 83.0652C82.1486 88.6895 78.6221 86.6346 77.4569 91.476C78.518 98.0976 100.042 101.861 103.664 96.681C108.007 90.4695 115.35 73.4583 116.08 65.6656Z" fill="#5D6AB0"/>
<path d="M72.2043 69.5704C78.8038 68.6323 91.3332 66.0818 97.3175 66.0026C98.9798 65.9607 99.4458 66.4282 99.4598 66.9936C99.4692 67.3866 99.2346 67.7904 99.0559 68.0964C93.6806 77.5759 88.3162 87.0632 82.9471 96.5458L82.5401 96.3144L98.652 67.8619C98.8011 67.604 99 67.2654 98.9938 67.0029C98.986 66.6923 98.6287 66.4391 97.347 66.467L72.2727 70.0333L72.2059 69.5704H72.2043Z" fill="#FFE5BD"/>
<path fill-rule="evenodd" clip-rule="evenodd" d="M85.4204 33.3359C83.5732 39.3672 80.8762 45.397 76.0214 51.4282L74.3746 51.2527C78.2849 45.8909 83.6571 36.9177 85.4188 33.3359" fill="#E78F2B"/>
<path fill-rule="evenodd" clip-rule="evenodd" d="M98.7219 56.6736L87.3748 57.8758C86.3432 55.2026 90.6155 57.1147 98.4671 50.7603C103.752 46.4842 108.735 37.6369 109.564 35.5151C108.724 41.0168 105.606 49.3733 98.7219 56.672" fill="#E78F2B"/>
<path fill-rule="evenodd" clip-rule="evenodd" d="M104.221 29.4437L94.9405 28.6748C91.4668 29.7434 90.8236 33.1093 90.8904 36.2112C91.0396 38.3889 93.5097 37.213 97.3517 34.0584C98.6877 36.0947 100.1 37.5284 101.624 38.0611C104.728 39.1453 106.866 31.6477 104.223 29.4437" fill="#E78F2B"/>
<path fill-rule="evenodd" clip-rule="evenodd" d="M105.15 26.281C101.444 27.2735 99.5251 26.6506 96.8017 24.313L94.0939 30.481C95.3072 35.7776 102.362 34.9652 103.659 30.8211L105.15 26.281Z" fill="#FF8F69"/>
<path fill-rule="evenodd" clip-rule="evenodd" d="M95.736 26.7486L96.7178 24.3721C99.3309 26.7517 101.385 26.9784 105.171 26.3121C101.924 27.7333 98.9829 28.0471 95.736 26.7486Z" fill="#EF5F2B"/>
<path fill-rule="evenodd" clip-rule="evenodd" d="M78.1638 76.156L90.502 75.1402L95.2932 68.1738C91.1701 72.2216 85.3831 74.8171 78.1638 76.156Z" fill="#454F85"/>
<path fill-rule="evenodd" clip-rule="evenodd" d="M37.3396 29.0972L50.7482 26.2128C51.7254 26.0031 52.6979 26.6306 52.9077 27.6076C53.1174 28.5846 52.4898 29.5569 51.5126 29.7666L38.1039 32.651C37.1267 32.8607 36.1557 32.2332 35.9445 31.2562C35.7347 30.2792 36.3624 29.3069 37.3396 29.0972Z" fill="#FFBA55"/>
<path fill-rule="evenodd" clip-rule="evenodd" d="M25.1923 37.2861L41.6708 33.7416C42.648 33.5319 43.6205 34.1594 43.8303 35.1364C44.04 36.1134 43.4139 37.0857 42.4352 37.2954L25.9567 40.8399C24.9795 41.0496 24.0085 40.4221 23.7972 39.4451C23.5875 38.4681 24.2152 37.4958 25.1923 37.2861Z" fill="#FFBA55"/>
<path fill-rule="evenodd" clip-rule="evenodd" d="M26.9727 24.6176L34.0802 23.0892C35.0574 22.8795 36.0299 23.5071 36.2397 24.4841C36.4494 25.4611 35.8218 26.4334 34.8446 26.6431L27.7371 28.1715C26.7599 28.3812 25.7874 27.7537 25.5776 26.7767C25.3679 25.7997 25.9955 24.8273 26.9727 24.6176Z" fill="#FFBA55"/>
<path fill-rule="evenodd" clip-rule="evenodd" d="M30.0441 104.145L41.5699 100.498C42.2037 100.298 42.8873 100.652 43.0877 101.286C43.2881 101.92 42.9339 102.603 42.3 102.803L30.7742 106.45C30.1404 106.651 29.4568 106.297 29.2564 105.661C29.056 105.028 29.4102 104.344 30.0441 104.144" fill="#FFBA55"/>
<path fill-rule="evenodd" clip-rule="evenodd" d="M135.524 114.772C134.808 110.315 134.702 104.837 127.508 104.635C131.726 104.401 135.223 100.123 135.148 93.416C135.227 97.9515 135.699 105.114 143.265 103.778C136.678 104.568 136.31 110.236 135.524 114.772Z" fill="#FFBA55"/>
<path fill-rule="evenodd" clip-rule="evenodd" d="M145.77 117.212C145.265 114.071 145.19 110.21 140.119 110.067C143.093 109.902 145.558 106.886 145.505 102.158C145.561 105.356 145.895 110.402 151.229 109.463C146.585 110.02 146.326 114.015 145.771 117.213" fill="#FFBA55"/>
<path fill-rule="evenodd" clip-rule="evenodd" d="M138.24 42.1431C137.949 40.3397 137.907 38.1217 134.994 38.0394C136.701 37.9446 138.118 36.2127 138.087 33.4961C138.12 35.332 138.311 38.232 141.375 37.6914C138.707 38.0114 138.558 40.3071 138.24 42.1431Z" fill="#FFBA55"/>
<path fill-rule="evenodd" clip-rule="evenodd" d="M66.9798 16.9073C66.7856 15.6989 66.7576 14.214 64.8063 14.1581C65.9497 14.0944 66.899 12.9341 66.8788 11.1152C66.9005 12.3454 67.0279 14.287 69.0802 13.9251C67.2936 14.1394 67.1941 15.6771 66.9813 16.9058" fill="#FFBA55"/>
<path fill-rule="evenodd" clip-rule="evenodd" d="M56.8506 86.0147C66.3677 90.6403 78.0721 59.7104 82.5898 77.3444C84.03 82.9641 76.9769 88.0572 68.0362 89.3868C60.9132 90.4461 43.2866 86.9001 43.7107 78.2671C43.9748 76.6004 45.272 77.6877 47.1332 79.8312C45.561 76.9561 44.4347 74.2845 44.6801 73.2268C46.563 69.9898 47.3351 81.3876 56.8522 86.0132" fill="#F8444F"/>
<path fill-rule="evenodd" clip-rule="evenodd" d="M32.0342 63.5466C37.3489 63.7656 35.163 80.2425 41.3632 73.5123C43.3394 71.3672 41.43 67.4344 37.7885 64.7162C34.888 62.551 26.241 59.9244 24.3721 63.8464C24.0924 64.6463 24.9251 64.4739 26.2596 63.9691C24.8785 64.8669 23.7444 65.7817 23.6015 66.3083C23.6652 68.1893 26.721 63.3276 32.0357 63.5466" fill="#F8444F"/>
<path fill-rule="evenodd" clip-rule="evenodd" d="M21.338 112.841L29.3606 110.36C29.996 110.163 30.6764 110.523 30.8737 111.159C31.071 111.794 30.7106 112.476 30.0752 112.671L22.0527 115.152C21.4173 115.349 20.7368 114.989 20.5395 114.354C20.3422 113.718 20.7026 113.038 21.338 112.841Z" fill="#FFBA55"/>
<path fill-rule="evenodd" clip-rule="evenodd" d="M10.4772 123.625L14.4962 122.498C15.1363 122.317 15.8058 122.695 15.9829 123.336C16.16 123.978 15.7825 124.649 15.1409 124.829L11.1219 125.957C10.4818 126.137 9.81224 125.759 9.63358 125.118C9.45648 124.476 9.83399 123.805 10.4756 123.625" fill="#FFBA55"/>
<path fill-rule="evenodd" clip-rule="evenodd" d="M47.3165 98.4734L51.3355 97.3458C51.9756 97.1656 52.6452 97.543 52.8238 98.1845C53.0009 98.826 52.6234 99.497 51.9818 99.6772L47.9628 100.805C47.3227 100.985 46.6531 100.608 46.4745 99.9661C46.2974 99.3246 46.6749 98.6536 47.3165 98.4734Z" fill="#FFBA55"/>
</g>
<defs>
<clipPath id="clip0_22_213">
<rect width="163" height="126" fill="white"/>
</clipPath>
</defs>
</svg>
