<svg width="64" height="64" viewBox="0 0 64 64" fill="none" xmlns="http://www.w3.org/2000/svg">
<path d="M63.859 2.74322C64.0045 2.37977 64.0401 1.98161 63.9614 1.5981C63.8828 1.2146 63.6933 0.862613 63.4164 0.585787C63.1396 0.308961 62.7876 0.119467 62.4041 0.0407974C62.0206 -0.0378724 61.6225 -0.00225838 61.259 0.143224L3.071 23.4192H3.067L1.259 24.1392C0.91656 24.2758 0.618541 24.5044 0.397862 24.7997C0.177182 25.0951 0.042431 25.4457 0.00849288 25.8128C-0.0254453 26.1799 0.0427504 26.5492 0.205547 26.88C0.368344 27.2108 0.619405 27.4902 0.930999 27.6872L2.571 28.7272L2.575 28.7352L22.555 41.4472L35.267 61.4272L35.275 61.4352L36.315 63.0752C36.5127 63.3856 36.7922 63.6354 37.1227 63.7972C37.4533 63.959 37.822 64.0264 38.1884 63.9921C38.5548 63.9578 38.9047 63.823 39.1994 63.6027C39.4942 63.3823 39.7224 63.0849 39.859 62.7432L63.859 2.74322ZM56.527 10.3032L26.551 40.2792L25.691 38.9272C25.5334 38.6791 25.3231 38.4688 25.075 38.3112L23.723 37.4512L53.699 7.47522L58.411 5.59122L56.527 10.3032Z" fill="#E91908"/>
</svg>
