<svg width="68" height="70" viewBox="0 0 68 70" fill="none" xmlns="http://www.w3.org/2000/svg">
<path fill-rule="evenodd" clip-rule="evenodd" d="M50.0813 2.93429C49.4148 1.83247 48.4327 0.973065 47.2718 0.475687C46.111 -0.0216918 44.8291 -0.132292 43.6047 0.159286L34.9143 2.22429C34.0237 2.43604 33.0983 2.43604 32.2077 2.22429L23.5173 0.159286C22.2929 -0.132292 21.011 -0.0216918 19.8502 0.475687C18.6893 0.973065 17.7073 1.83247 17.0407 2.93429L12.304 10.7543C11.8207 11.5543 11.1682 12.2293 10.3948 12.7343L2.83551 17.6343C1.77226 18.3232 0.942715 19.3375 0.462019 20.5364C-0.0186762 21.7352 -0.126678 23.0591 0.153006 24.3243L2.14917 33.3243C2.35313 34.244 2.35313 35.1996 2.14917 36.1193L0.153006 45.1143C-0.127765 46.3802 -0.0203067 47.7052 0.46044 48.9051C0.941188 50.1049 1.77134 51.12 2.83551 51.8093L10.3948 56.7093C11.1682 57.2093 11.8207 57.8843 12.3088 58.6843L17.0455 66.5043C18.4085 68.7593 21.0088 69.8743 23.5173 69.2793L32.2077 67.2143C33.0983 67.0025 34.0237 67.0025 34.9143 67.2143L43.6095 69.2793C44.8333 69.5697 46.1141 69.4586 47.2739 68.9612C48.4338 68.4639 49.4151 67.6051 50.0813 66.5043L54.818 58.6843C55.3013 57.8843 55.9538 57.2093 56.7272 56.7093L64.2913 51.8093C65.3555 51.119 66.1853 50.1028 66.6652 48.902C67.1451 47.7011 67.2513 46.3754 66.969 45.1093L64.9777 36.1193C64.773 35.198 64.773 34.2406 64.9777 33.3193L66.9738 24.3243C67.2551 23.0589 67.1483 21.7342 66.6685 20.5344C66.1886 19.3347 65.3595 18.3192 64.2962 17.6293L56.732 12.7293C55.9597 12.2284 55.3071 11.5532 54.8228 10.7543L50.0813 2.93429ZM47.6502 23.5693C47.9491 23.0006 48.0232 22.3342 47.8568 21.7101C47.6904 21.0861 47.2965 20.5532 46.758 20.2235C46.2195 19.8938 45.5784 19.793 44.9696 19.9424C44.3607 20.0917 43.8316 20.4796 43.4935 21.0243L30.8543 43.1543L23.2225 35.5943C22.9961 35.3538 22.7252 35.1629 22.4259 35.0331C22.1267 34.9033 21.8052 34.8371 21.4807 34.8386C21.1562 34.84 20.8353 34.9091 20.5371 35.0416C20.239 35.1742 19.9697 35.3674 19.7453 35.61C19.5209 35.8525 19.3461 36.1393 19.2312 36.4532C19.1162 36.7672 19.0636 37.1019 19.0765 37.4373C19.0893 37.7727 19.1673 38.1021 19.3058 38.4056C19.4443 38.7092 19.6405 38.9808 19.8827 39.2043L29.7137 48.9493C29.9768 49.2096 30.2934 49.405 30.6397 49.5209C30.9861 49.6369 31.3533 49.6704 31.7139 49.6189C32.0746 49.5675 32.4193 49.4324 32.7224 49.2238C33.0255 49.0152 33.2791 48.7385 33.4643 48.4143L47.6502 23.5693Z" fill="#E91908"/>
</svg>
