<svg width="72" height="72" viewBox="0 0 72 72" fill="none" xmlns="http://www.w3.org/2000/svg">
<path d="M35.875 0C26.3961 0.115013 17.3378 3.93162 10.6347 10.6347C3.93162 17.3378 0.115013 26.3961 0 35.875C0.115013 45.3539 3.93162 54.4122 10.6347 61.1153C17.3378 67.8184 26.3961 71.635 35.875 71.75C45.3539 71.635 54.4122 67.8184 61.1153 61.1153C67.8184 54.4122 71.635 45.3539 71.75 35.875C71.635 26.3961 67.8184 17.3378 61.1153 10.6347C54.4122 3.93162 45.3539 0.115013 35.875 0ZM56.375 38.4375H38.4375V56.375H33.3125V38.4375H15.375V33.3125H33.3125V15.375H38.4375V33.3125H56.375V38.4375Z" fill="#E91908"/>
</svg>
