<svg xmlns="http://www.w3.org/2000/svg" version="1.1" xmlns:xlink="http://www.w3.org/1999/xlink" xmlns:svgjs="http://svgjs.dev/svgjs" width="100%" height="100%" viewBox="0 0 1000 600"><rect width="1000" height="600" x="0" y="0" fill="#493030D6"/><g><circle r="166.66666666666666" cx="432.2000528971354" cy="454.422203180584" fill="#e91908" transform="matrix(0.47075074826694324,0,0,0.4707507482669432,0,86.08040676818842)"/><path d="M342.9589728937249 529.4222062874262L342.9589728937249 529.4222062874262Q324.6634758067062 529.4222062874262 311.59114113727486 521.0247462679902Q298.48994921691764 512.5984289976284 291.53535174377646 496.09208146801524Q284.5807542706353 479.5568766874763 284.5807542706353 455.25907140787103L284.5807542706353 455.25907140787103Q284.5807542706353 430.9612661282658 291.53535174377646 414.0220598347642Q298.48994921691764 397.08285354126275 311.59114113727486 388.25253475793824Q324.6634758067062 379.4222159746138 342.9589728937249 379.4222159746138L342.9589728937249 379.4222159746138Q361.0236119733364 379.4222159746138 373.4899443733239 387.7331042412721Q385.9562767733114 396.04399250793045 392.82430249367485 411.2229064949522L392.82430249367485 411.2229064949522L378.68424953998533 419.73579551809183Q374.32680465017495 408.5103249079179 365.38105686314685 401.757728191258Q356.46416632704467 395.00513147459816 342.9589728937249 395.00513147459816L342.9589728937249 395.00513147459816Q324.25947429374366 395.00513147459816 313.7554349567172 408.62575391162153Q303.28025287061655 422.217519097719 303.28025287061655 444.46645956158557L303.28025287061655 444.46645956158557L303.28025287061655 466.0516832541565Q303.28025287061655 488.3006237180231 313.7554349567172 501.0843858781954Q324.25947429374366 513.8392907874419 342.9589728937249 513.8392907874419L342.9589728937249 513.8392907874419Q356.86816784000723 513.8392907874419 366.2179171399979 506.68269255781945Q375.56766643998844 499.52609432819696 379.92511132979894 487.66576419765335L379.92511132979894 487.66576419765335L393.86316352700715 496.40951122820013Q386.9951378066437 511.55956796429604 374.00937488999006 520.5053157513241Q361.0236119733364 529.4222062874262 342.9589728937249 529.4222062874262ZM429.7904409297489 529.4222062874262L429.7904409297489 529.4222062874262Q423.3552739732739 529.4222062874262 420.238690873277 526.0170506781703Q417.1221077732801 522.5830378179887 417.1221077732801 517.3887326513272L417.1221077732801 517.3887326513272L417.1221077732801 514.676151064293Q417.1221077732801 509.27984514115013 420.238690873277 505.96126128467205Q423.3552739732739 502.64267742819385 429.7904409297489 502.64267742819385L429.7904409297489 502.64267742819385Q436.4564658936311 502.64267742819385 439.4576199899244 505.96126128467205Q442.4876313371435 509.27984514115013 442.4876313371435 514.676151064293L442.4876313371435 514.676151064293L442.4876313371435 517.3887326513272Q442.4876313371435 522.5830378179887 439.4576199899244 526.0170506781703Q436.4564658936311 529.4222062874262 429.7904409297489 529.4222062874262ZM528.7130971037237 464.60882070786164L494.8346845167207 464.60882070786164L494.8346845167207 526.9404827077992L477.376047706553 526.9404827077992L477.376047706553 381.90393955424094L535.1482640601987 381.90393955424094Q547.8165972166676 381.90393955424094 556.8489167564733 386.6942432079398Q565.881236296279 391.4845468616387 570.7869689536815 400.60343815422215Q575.663844360158 409.7511866977315 575.663844360158 423.05437937457L575.663844360158 423.05437937457Q575.663844360158 438.83929563103567 568.1898163703509 449.22790596435857Q560.6869311296175 459.61651629768147 546.575735426854 462.9351001541596L546.575735426854 462.9351001541596L579.8192884934872 526.9404827077992L560.0809288601738 526.9404827077992L528.7130971037237 464.60882070786164ZM494.8346845167207 397.284854297744L494.8346845167207 449.660764728247L535.1482640601987 449.660764728247Q541.9874325296364 449.660764728247 546.8931651870389 447.26561290139756Q551.7700405935154 444.87046107454813 554.3671931768461 440.1955864245528Q556.9643457601769 435.52071177455747 556.9643457601769 428.8835440616012L556.9643457601769 428.8835440616012L556.9643457601769 418.0620749643898Q556.9643457601769 411.4249072514335 554.3671931768461 406.75003260143825Q551.7700405935154 402.0751579514429 546.8931651870389 399.68000612459343Q541.9874325296364 397.284854297744 535.1482640601987 397.284854297744L535.1482640601987 397.284854297744L494.8346845167207 397.284854297744Z " fill="#493030D6" transform="matrix(0.47075074826694324,0,0,0.4707507482669432,0,86.08040676818842)"/><path d="M738.2491607679436 529.4222220556735L738.2491607679436 529.4222220556735Q720.6835910650651 529.4222220556735 708.1327975707371 521.3597917977277Q695.5542981305055 513.2696555938783 688.8771651677393 497.4218545370225Q682.2000322049732 481.54634753426325 682.2000322049732 458.2179410834372L682.2000322049732 458.2179410834372Q682.2000322049732 434.8895346326112 688.8771651677393 418.6261443872016Q695.5542981305055 402.362754141792 708.1327975707371 393.88473469529225Q720.6835910650651 385.4067152487926 738.2491607679436 385.4067152487926L738.2491607679436 385.4067152487926Q755.5930829035933 385.4067152487926 767.5620515339459 393.38602766902756Q779.5310201642985 401.3653400892626 786.1250352893537 415.938667634553L786.1250352893537 415.938667634553L772.5491217965928 424.1119216761132Q768.3655239651501 413.3343087196152 759.776680735036 406.8511173781742Q751.2155434508256 400.36792603673325 738.2491607679436 400.36792603673325L738.2491607679436 400.36792603673325Q720.2957078224149 400.36792603673325 710.2107435135067 413.44513250322956Q700.1534851505021 426.49463302382225 700.1534851505021 447.8559173154931L700.1534851505021 447.8559173154931L700.1534851505021 468.5799648513813Q700.1534851505021 489.9412491430522 710.2107435135067 502.21498317834426Q720.2957078224149 514.4610112677328 738.2491607679436 514.4610112677328L738.2491607679436 514.4610112677328Q751.6034266934759 514.4610112677328 760.5801531662403 507.5899366836415Q769.5568796390047 500.71886209955017 773.7404774704473 489.3317183331731L773.7404774704473 489.3317183331731L787.1224493418831 497.72661994196204Q780.5284342168279 512.2722415413489 768.0607585602106 520.8610847714629Q755.5930829035933 529.4222220556735 738.2491607679436 529.4222220556735ZM850.3474178938843 529.4222220556735L850.3474178938843 529.4222220556735Q836.5775627797982 529.4222220556735 826.1047152282397 522.7450890929074Q815.6318676766814 516.0679561301412 809.7582071451193 503.98816371617426Q803.8845466135574 491.93607724811096 803.8845466135574 475.56186321908694L803.8845466135574 475.56186321908694Q803.8845466135574 459.2153551359666 809.7582071451193 447.1355627219997Q815.6318676766814 435.08347625393634 826.1047152282397 428.40634329117023Q836.5775627797982 421.7015043825005 850.3474178938843 421.7015043825005L850.3474178938843 421.7015043825005Q864.1172730079707 421.7015043825005 874.5901205595289 428.40634329117023Q885.0629681110875 435.08347625393634 890.9366286426493 447.1355627219997Q896.8379951201148 459.2153551359666 896.8379951201148 475.56186321908694L896.8379951201148 475.56186321908694Q896.8379951201148 491.93607724811096 890.9366286426493 503.98816371617426Q885.0629681110875 516.0679561301412 874.5901205595289 522.7450890929074Q864.1172730079707 529.4222220556735 850.3474178938843 529.4222220556735ZM850.3474178938843 515.264483698937L850.3474178938843 515.264483698937Q863.3138005767662 515.264483698937 871.4870546183265 507.2851712787019Q879.6880146057902 499.30585885846693 879.6880146057902 482.95935077534654L879.6880146057902 482.95935077534654L879.6880146057902 468.19208160873103Q879.6880146057902 451.84557352561063 871.4870546183265 443.8662611053756Q863.3138005767662 435.88694868514057 850.3474178938843 435.88694868514057L850.3474178938843 435.88694868514057Q837.5749768323276 435.88694868514057 829.3186049530566 443.8662611053756Q821.034527127882 451.84557352561063 821.034527127882 468.19208160873103L821.034527127882 468.19208160873103L821.034527127882 482.95935077534654Q821.034527127882 499.30585885846693 829.3186049530566 507.2851712787019Q837.5749768323276 515.264483698937 850.3474178938843 515.264483698937ZM954.0784793569399 529.4222220556735L954.0784793569399 529.4222220556735Q939.9207410002034 529.4222220556735 930.1405420962346 523.9364447667618Q920.3603431922661 518.4506674778502 913.3784448245603 509.2799993837607L913.3784448245603 509.2799993837607L924.7655885909376 500.1093312896711Q930.7500729061137 507.4791129000271 938.1198545164698 511.6904166773733Q945.5173420727292 515.8740145088161 955.2698350307944 515.8740145088161L955.2698350307944 515.8740145088161Q965.4656231233168 515.8740145088161 971.1453420335536 511.4687691101446Q976.8250609437903 507.0912296573768 976.8250609437903 499.11191723714177L976.8250609437903 499.11191723714177Q976.8250609437903 493.12743292196546 972.9462285172872 488.7498934691976Q969.0396901448805 484.34464807052626 958.8716079982614 482.95935077534654L958.8716079982614 482.95935077534654L950.6983539567013 481.767995101492Q941.3060382953831 480.3549918604087 933.7423150637019 477.05798429788103Q926.1508858861171 473.78868268125694 921.8564642710601 467.69337458246633Q917.5897486019066 461.59806648367567 917.5897486019066 452.0395151469358L917.5897486019066 452.0395151469358Q917.5897486019066 436.66271517044123 928.0625961534652 429.18210977647084Q938.5354437050237 421.7015043825005 954.272420978265 421.7015043825005L954.272420978265 421.7015043825005Q962.6673225870538 421.7015043825005 969.1505139284948 423.6963324875593Q975.6337052699357 425.691160592618 980.8147171539078 429.4037573436996Q985.99572903788 433.0886481488776 990.1793268693225 438.26966003284963L990.1793268693225 438.26966003284963L979.6233614800533 447.8559173154931Q976.2155301339112 443.0627886741714 969.6492209547596 439.15625030176466Q963.0552058297042 435.2774178752615 953.0810653044105 435.2774178752615L953.0810653044105 435.2774178752615Q943.3008664004417 435.2774178752615 938.1198545164698 439.57183949031855Q932.9388426324977 443.8662611053756 932.9388426324977 451.23604271573157L932.9388426324977 451.23604271573157Q932.9388426324977 458.60582432608754 938.0367366787589 462.09677350994036Q943.1069247791165 465.5877226937932 952.6931820617601 467.19466755620164L952.6931820617601 467.19466755620164L960.672494481995 468.38602323005614Q977.8224749963197 470.99038214499393 984.9983149853506 478.27704591763916Q992.1741549743813 485.5360037443807 992.1741549743813 497.31103075340815L992.1741549743813 497.31103075340815Q992.1741549743813 507.2851712787019 987.6026739002882 514.4610112677328Q983.0034868802918 521.6645572026671 974.4423495960812 525.5433896291703Q965.8535063659672 529.4222220556735 954.0784793569399 529.4222220556735ZM1036.2820208529026 455.61358216849936L1036.2820208529026 527.0395107079644L1020.3233960124326 527.0395107079644L1020.3233960124326 424.1119216761132L1036.2820208529026 424.1119216761132L1036.2820208529026 440.8740189477875L1037.0577873382033 440.8740189477875Q1040.4656186843454 432.89470652755244 1046.644044620847 427.2981054550265Q1052.8224705573482 421.7015043825005 1064.791439187701 421.7015043825005L1064.791439187701 421.7015043825005Q1074.9595213343198 421.7015043825005 1083.5483645644338 426.6054568074366Q1092.137207794548 431.48170328646916 1096.3208056259907 442.6471994856175L1096.3208056259907 442.6471994856175L1096.7086888686408 442.6471994856175Q1099.5069894049038 434.2800038227321 1107.1815364201993 427.99075410261634Q1114.8560834354948 421.7015043825005 1128.0441136856055 421.7015043825005L1128.0441136856055 421.7015043825005Q1143.781090958847 421.7015043825005 1152.6746995939004 431.9804103127338Q1161.5406022830505 442.25931624296715 1161.5406022830505 461.0162416197002L1161.5406022830505 461.0162416197002L1161.5406022830505 527.0395107079644L1145.5819774425804 527.0395107079644L1145.5819774425804 463.8145421559632Q1145.5819774425804 450.2386286632022 1140.2070239372833 443.1459065118822Q1134.8043644860825 436.08089030646573 1123.0570434229587 436.08089030646573L1123.0570434229587 436.08089030646573Q1116.8509115405536 436.08089030646573 1111.2820164139314 438.15883624923526Q1105.6854153414054 440.2644881379084 1102.3052899411668 444.64202759067626Q1098.897458595025 449.0472729893476 1098.897458595025 455.61358216849936L1098.897458595025 455.61358216849936L1098.897458595025 527.0395107079644L1082.9388337545547 527.0395107079644L1082.9388337545547 463.8145421559632Q1082.9388337545547 450.044687041877 1077.5638802492576 443.0627886741714Q1072.1889267439603 436.08089030646573 1060.8017829775833 436.08089030646573L1060.8017829775833 436.08089030646573Q1054.6233570410818 436.08089030646573 1048.943638130845 438.15883624923526Q1043.2639192206084 440.2644881379084 1039.7729700367556 444.64202759067626Q1036.2820208529026 449.0472729893476 1036.2820208529026 455.61358216849936L1036.2820208529026 455.61358216849936ZM1233.3544140651659 529.4222220556735L1233.3544140651659 529.4222220556735Q1219.5845589510795 529.4222220556735 1209.1117113995213 522.7450890929074Q1198.6388638479627 516.0679561301412 1192.7652033164009 503.98816371617426Q1186.891542784839 491.93607724811096 1186.891542784839 475.56186321908694L1186.891542784839 475.56186321908694Q1186.891542784839 459.2153551359666 1192.7652033164009 447.1355627219997Q1198.6388638479627 435.08347625393634 1209.1117113995213 428.40634329117023Q1219.5845589510795 421.7015043825005 1233.3544140651659 421.7015043825005L1233.3544140651659 421.7015043825005Q1247.124269179252 421.7015043825005 1257.5971167308105 428.40634329117023Q1268.0699642823688 435.08347625393634 1273.9436248139307 447.1355627219997Q1279.8449912913961 459.2153551359666 1279.8449912913961 475.56186321908694L1279.8449912913961 475.56186321908694Q1279.8449912913961 491.93607724811096 1273.9436248139307 503.98816371617426Q1268.0699642823688 516.0679561301412 1257.5971167308105 522.7450890929074Q1247.124269179252 529.4222220556735 1233.3544140651659 529.4222220556735ZM1233.3544140651659 515.264483698937L1233.3544140651659 515.264483698937Q1246.3207967480478 515.264483698937 1254.4940507896079 507.2851712787019Q1262.6950107770717 499.30585885846693 1262.6950107770717 482.95935077534654L1262.6950107770717 482.95935077534654L1262.6950107770717 468.19208160873103Q1262.6950107770717 451.84557352561063 1254.4940507896079 443.8662611053756Q1246.3207967480478 435.88694868514057 1233.3544140651659 435.88694868514057L1233.3544140651659 435.88694868514057Q1220.581973003609 435.88694868514057 1212.3256011243382 443.8662611053756Q1204.0415232991636 451.84557352561063 1204.0415232991636 468.19208160873103L1204.0415232991636 468.19208160873103L1204.0415232991636 482.95935077534654Q1204.0415232991636 499.30585885846693 1212.3256011243382 507.2851712787019Q1220.581973003609 515.264483698937 1233.3544140651659 515.264483698937ZM1404.1061586690148 467.19466755620164L1371.6070841240992 467.19466755620164L1371.6070841240992 527.0395107079644L1354.8449868524249 527.0395107079644L1354.8449868524249 387.78942659650164L1410.31229055142 387.78942659650164Q1422.4752008030976 387.78942659650164 1431.1471618709224 392.3886136164982Q1439.8191229387471 396.9878006364948 1444.5014277964547 405.74287954203044Q1449.2114386000655 414.5256643934697 1449.2114386000655 427.2981054550265L1449.2114386000655 427.2981054550265Q1449.2114386000655 442.4532578642923 1442.0078926651313 452.42739838958613Q1434.8320526761004 462.4015389148799 1421.283845129243 465.5877226937932L1421.283845129243 465.5877226937932L1453.201094810183 527.0395107079644L1434.2502278121249 527.0395107079644L1404.1061586690148 467.19466755620164ZM1371.6070841240992 402.55669576311715L1371.6070841240992 452.84298757814L1410.31229055142 452.84298757814Q1416.8785997305718 452.84298757814 1421.5609045882788 450.5433940681417Q1426.27091539189 448.2438005581434 1428.7644505232133 443.75543732176124Q1431.2579856545367 439.267074085379 1431.2579856545367 432.89470652755244L1431.2579856545367 432.89470652755244L1431.2579856545367 422.50497681370473Q1431.2579856545367 416.13260925587815 1428.7644505232133 411.64424601949594Q1426.27091539189 407.1558827831137 1421.5609045882788 404.85628927311546Q1416.8785997305718 402.55669576311715 1410.31229055142 402.55669576311715L1410.31229055142 402.55669576311715L1371.6070841240992 402.55669576311715ZM1519.6122471410977 529.4222220556735L1519.6122471410977 529.4222220556735Q1505.6484504056862 529.4222220556735 1495.286426637742 522.7450890929074Q1484.8966969238945 516.0679561301412 1479.133860175947 503.98816371617426Q1473.343317482096 491.93607724811096 1473.343317482096 475.56186321908694L1473.343317482096 475.56186321908694Q1473.343317482096 459.2153551359666 1479.133860175947 447.1355627219997Q1484.8966969238945 435.08347625393634 1495.286426637742 428.40634329117023Q1505.6484504056862 421.7015043825005 1519.6122471410977 421.7015043825005L1519.6122471410977 421.7015043825005Q1533.3821022551836 421.7015043825005 1543.3562427804775 428.1846957239415Q1553.3303833057712 434.66788706538244 1558.7053368110685 446.0550308317595Q1564.1079962622694 457.414468652233 1564.1079962622694 471.9877961975233L1564.1079962622694 471.9877961975233L1564.1079962622694 479.55151942920446L1490.10541475377 479.55151942920446L1490.10541475377 484.34464807052626Q1490.10541475377 497.72661994196204 1498.1678450117158 506.5925226311121Q1506.2579812155655 515.4584253202621 1520.6096611936268 515.4584253202621L1520.6096611936268 515.4584253202621Q1530.3898600975956 515.4584253202621 1537.6765238702405 510.8869442461691Q1544.963187642886 506.2877572261726 1548.9528438530033 497.72661994196204L1548.9528438530033 497.72661994196204L1560.312281673477 505.89987398352224Q1555.32521141083 516.2618977514663 1544.7415400756572 522.8559128765216Q1534.1855746863878 529.4222220556735 1519.6122471410977 529.4222220556735ZM1519.6122471410977 435.08347625393634L1519.6122471410977 435.08347625393634Q1511.051109856887 435.08347625393634 1504.3462709482174 439.07313246405386Q1497.6691379854512 443.0627886741714 1493.8734233966588 450.1278048795878Q1490.10541475377 457.2205270309078 1490.10541475377 466.19725350367224L1490.10541475377 466.19725350367224L1490.10541475377 467.58255079885197L1546.9580157479445 467.58255079885197L1546.9580157479445 465.393781072468Q1546.9580157479445 456.2231129783784 1543.5501844018027 449.43515623199795Q1540.1700590015641 442.6471994856175 1533.9916330650626 438.8791908427287Q1527.7855011826578 435.08347625393634 1519.6122471410977 435.08347625393634ZM1606.3872697111535 455.61358216849936L1606.3872697111535 527.0395107079644L1590.4286448706835 527.0395107079644L1590.4286448706835 424.1119216761132L1606.3872697111535 424.1119216761132L1606.3872697111535 440.8740189477875L1607.1907421423577 440.8740189477875Q1610.5708675425963 432.89470652755244 1616.7769994250011 427.2981054550265Q1622.9554253615026 421.7015043825005 1634.9243939918551 421.7015043825005L1634.9243939918551 421.7015043825005Q1645.0924761384742 421.7015043825005 1653.681319368588 426.6054568074366Q1662.2424566527989 431.48170328646916 1666.4260544842414 442.6471994856175L1666.4260544842414 442.6471994856175L1666.8416436727953 442.6471994856175Q1669.6399442090583 434.2800038227321 1677.3144912243538 427.99075410261634Q1684.9890382396493 421.7015043825005 1698.1493625438563 421.7015043825005L1698.1493625438563 421.7015043825005Q1713.914045763001 421.7015043825005 1722.779948452151 431.9804103127338Q1731.6735570872052 442.25931624296715 1731.6735570872052 461.0162416197002L1731.6735570872052 461.0162416197002L1731.6735570872052 527.0395107079644L1715.7149322467349 527.0395107079644L1715.7149322467349 463.8145421559632Q1715.7149322467349 450.2386286632022 1710.3122727955342 443.1459065118822Q1704.9373192902367 436.08089030646573 1693.1622922812094 436.08089030646573L1693.1622922812094 436.08089030646573Q1686.9838663447078 436.08089030646573 1681.387265272182 438.15883624923526Q1675.8183701455596 440.2644881379084 1672.4105387994175 444.64202759067626Q1669.0304133991792 449.0472729893476 1669.0304133991792 455.61358216849936L1669.0304133991792 455.61358216849936L1669.0304133991792 527.0395107079644L1653.0717885587092 527.0395107079644L1653.0717885587092 463.8145421559632Q1653.0717885587092 450.044687041877 1647.696835053412 443.0627886741714Q1642.294175602211 436.08089030646573 1630.9347377817376 436.08089030646573L1630.9347377817376 436.08089030646573Q1624.7563118452363 436.08089030646573 1619.0488869890958 438.15883624923526Q1613.3691680788593 440.2644881379084 1609.8782188950063 444.64202759067626Q1606.3872697111535 449.0472729893476 1606.3872697111535 455.61358216849936L1606.3872697111535 455.61358216849936ZM1772.5675332409096 399.9800427940829L1772.5675332409096 399.9800427940829Q1767.5804629782624 399.9800427940829 1765.1700456846497 397.4865076627595Q1762.7873343369406 394.992972531436 1762.7873343369406 391.00331632131855L1762.7873343369406 391.00331632131855L1762.7873343369406 388.3989574063807Q1762.7873343369406 384.4093011962632 1765.1700456846497 381.91576606493976Q1767.5804629782624 379.4222309336163 1772.5675332409096 379.4222309336163L1772.5675332409096 379.4222309336163Q1777.7485451248813 379.4222309336163 1780.0481386348797 381.91576606493976Q1782.3477321448781 384.4093011962632 1782.3477321448781 388.3989574063807L1782.3477321448781 388.3989574063807L1782.3477321448781 391.00331632131855Q1782.3477321448781 394.992972531436 1780.0481386348797 397.4865076627595Q1777.7485451248813 399.9800427940829 1772.5675332409096 399.9800427940829ZM1780.5468456611443 527.0395107079644L1764.5882208206745 527.0395107079644L1764.5882208206745 424.1119216761132L1780.5468456611443 424.1119216761132L1780.5468456611443 527.0395107079644ZM1857.1537860845815 513.0757139725531L1857.1537860845815 527.0395107079644L1837.205505033994 527.0395107079644Q1829.00454504653 527.0395107079644 1824.627005593762 522.2463820666426Q1820.2494661409946 517.4532534253208 1820.2494661409946 510.08347181496487L1820.2494661409946 510.08347181496487L1820.2494661409946 438.07571841152446L1803.2934272479947 438.07571841152446L1803.2934272479947 424.1119216761132L1812.8519785847348 424.1119216761132Q1818.0329904687069 424.1119216761132 1819.944700736055 422.00626978744003Q1821.828705057499 419.9283238446705 1821.828705057499 414.71960601479486L1821.828705057499 414.71960601479486L1821.828705057499 395.5747973954115L1836.2080909814645 395.5747973954115L1836.2080909814645 424.1119216761132L1858.7330250010864 424.1119216761132L1858.7330250010864 438.07571841152446L1836.2080909814645 438.07571841152446L1836.2080909814645 513.0757139725531L1857.1537860845815 513.0757139725531Z " fill="#e91908" transform="matrix(0.47075074826694324,0,0,0.4707507482669432,0,86.08040676818842)"/></g></svg>