<svg width="141" height="154" viewBox="0 0 141 154" fill="none" xmlns="http://www.w3.org/2000/svg">
<g clip-path="url(#clip0_22_134)">
<path fill-rule="evenodd" clip-rule="evenodd" d="M15.0948 73.8783C6.33701 67.1646 -2.13054 76.9248 0.47972 91.482C2.96023 105.319 15.5608 123.547 43.3467 134.022C82.0601 148.617 111.295 139.63 130.407 115.75C155.506 84.3894 123.302 76.8116 109.064 87.6828C95.7396 97.8562 56.8504 105.893 15.0931 73.88" fill="#FFECCF"/>
<path fill-rule="evenodd" clip-rule="evenodd" d="M30.5634 99.4039L24.0984 96.1636L36.4446 68.4859L50.0883 78.8102C54.6362 46.5361 86.2375 14.1283 125.448 6.50601L123.957 -0.00195312L141 6.21113L129.975 18.2584L128.268 13.7803C93.2898 21.6907 64.6333 46.9167 52.0635 84.9924L39.7975 75.7757L30.5651 99.4022L30.5634 99.4039Z" fill="#F8444F"/>
<path d="M60.0871 151.365C60.1401 151.507 60.0667 151.665 59.925 151.716C59.7833 151.769 59.6262 151.696 59.575 151.553C57.3488 145.517 55.8261 139.669 54.8 133.95C54.5013 132.287 54.2452 130.636 54.0267 128.995L48.5023 124.966C48.4852 124.978 48.4699 124.992 48.4528 125.004C47.8758 125.414 47.0512 125.239 46.6125 124.615C46.1737 123.991 46.2847 123.152 46.8617 122.742C47.4387 122.333 48.2633 122.508 48.702 123.132C49.0093 123.569 49.0469 124.112 48.842 124.539L53.9277 128.247C53.7228 126.641 53.5538 125.045 53.4138 123.457C53.3933 123.44 53.3763 123.418 53.3626 123.394L48.9001 116.01C48.8745 116.01 48.8489 116.005 48.8233 115.998L44.6834 114.681C44.6066 114.789 44.511 114.887 44.3983 114.968C43.8213 115.377 42.9967 115.202 42.558 114.578C42.1192 113.954 42.2302 113.116 42.8072 112.706C43.3842 112.296 44.2088 112.471 44.6475 113.095C44.8814 113.426 44.9582 113.819 44.8934 114.174L48.4784 115.314L45.2536 109.979C45.2433 109.963 45.2365 109.946 45.2297 109.929C44.6748 110.177 43.9817 109.979 43.5925 109.425C43.1538 108.801 43.2647 107.962 43.8417 107.553C44.4188 107.143 45.2433 107.318 45.6821 107.942C46.0594 108.478 46.0303 109.173 45.6479 109.617C45.6752 109.637 45.7008 109.663 45.7196 109.696L53.3131 122.261C53.1782 120.55 53.0758 118.847 53.0024 117.152C53.0007 117.109 53.0075 117.068 53.0246 117.03C52.7173 116.948 52.4288 116.756 52.2239 116.464C51.7852 115.84 51.8962 115.002 52.4732 114.592C53.0502 114.182 53.8748 114.357 54.3135 114.981C54.7522 115.605 54.6413 116.444 54.0643 116.853C53.9038 116.968 53.7228 117.037 53.5367 117.063C53.5419 117.083 53.547 117.104 53.547 117.126C53.7723 122.304 54.2555 127.546 55.1671 132.902L58.3134 126.579C58.3253 126.557 58.339 126.536 58.3544 126.518C58.2297 126.427 58.1154 126.312 58.0198 126.176C57.581 125.552 57.692 124.714 58.269 124.304C58.846 123.895 59.6706 124.069 60.1093 124.693C60.5481 125.318 60.4371 126.156 59.8601 126.566C59.5528 126.783 59.1772 126.837 58.8255 126.744C58.8204 126.771 58.8136 126.797 58.7999 126.823L55.3754 133.705C55.3617 133.734 55.3412 133.759 55.319 133.78L55.331 133.849C56.3519 139.532 57.8661 145.351 60.082 151.361" fill="#E8A000"/>
<path d="M52.0617 131.086C52.1386 131.105 52.1847 131.182 52.1659 131.26C52.1471 131.337 52.0703 131.383 51.9935 131.364L45.9228 129.861C45.846 129.842 45.7999 129.765 45.8186 129.687C45.8374 129.61 45.9142 129.564 45.9911 129.583L52.0617 131.086Z" fill="#E8A000"/>
<path fill-rule="evenodd" clip-rule="evenodd" d="M52.3656 143.454C54.3442 148.426 57.9037 150.631 63.3547 149.535C63.3547 149.535 66.6256 142.585 58.6156 136.355C57.0313 129.73 53.4207 125.638 48.6799 122.96C45.1631 117.611 40.0194 116.236 33.5117 118.192C41.701 117.467 35.9034 126.281 42.0851 126.288C42.3121 134.855 46.1157 140.238 52.3656 143.454Z" fill="#00BEB0"/>
<path d="M60.7854 144.138L60.3261 139.977C60.3125 139.859 60.3978 139.753 60.5156 139.741C60.6334 139.727 60.7393 139.813 60.7512 139.929L61.3197 145.088C62.2826 146.82 63.1959 148.579 64.0648 150.363C64.116 150.47 64.0717 150.598 63.9658 150.65C63.86 150.701 63.7319 150.656 63.6807 150.55C61.994 147.09 60.1418 143.725 58.088 140.475L58.0676 140.471L53.1373 139.297C53.0229 139.269 52.9512 139.154 52.9785 139.038C53.0058 138.923 53.1202 138.851 53.2363 138.878L57.7603 139.957C57.033 138.822 56.2802 137.701 55.5 136.595C55.4624 136.567 55.4351 136.53 55.4215 136.483C54.9127 135.765 54.3937 135.052 53.8628 134.347C53.5965 133.992 53.325 133.639 53.0519 133.288L48.1882 132.129C48.0738 132.101 48.0021 131.986 48.0294 131.87C48.0567 131.755 48.1711 131.683 48.2872 131.71L52.6285 132.744C51.8313 131.736 51.0084 130.742 50.16 129.761C50.0661 129.742 49.9927 129.662 49.9875 129.562C49.1766 128.633 48.3418 127.717 47.4831 126.817L43.9886 125.578C43.8776 125.538 43.8178 125.415 43.8588 125.304C43.8981 125.192 44.021 125.134 44.132 125.173L46.8139 126.125C44.8114 124.078 42.6757 122.106 40.3898 120.219C40.2994 120.143 40.2857 120.008 40.3608 119.917C40.4359 119.826 40.5708 119.812 40.6613 119.888C43.1913 121.978 45.5421 124.17 47.729 126.454C47.7597 126.473 47.7853 126.5 47.8041 126.533C48.5501 127.313 49.2757 128.105 49.9841 128.907L49.9585 125.766C49.9585 125.648 50.0524 125.552 50.1702 125.55C50.288 125.55 50.3853 125.645 50.3853 125.763L50.4143 129.399C51.7425 130.927 53.0041 132.49 54.2077 134.088C54.6157 134.63 55.0169 135.175 55.4095 135.726L55.3856 132.638C55.3856 132.52 55.4795 132.424 55.5973 132.422C55.7151 132.422 55.8124 132.516 55.8124 132.634L55.8414 136.334C57.6237 138.861 59.2677 141.467 60.7905 144.142" fill="#002F40"/>
<path fill-rule="evenodd" clip-rule="evenodd" d="M101.216 131.688C98.9149 139.703 93.7337 143.677 85.1142 142.825C85.1142 142.825 78.9718 132.556 90.4303 121.652C91.866 111.136 96.8322 104.228 103.774 99.3388C108.402 90.4992 116.164 87.5675 126.557 89.5888C113.747 89.738 124.096 102.502 114.51 103.474C115.48 116.792 110.409 125.732 101.216 131.688Z" fill="#00BEB0"/>
<path d="M91.3539 130.99C91.3385 130.997 91.3232 131.001 91.3061 131.004C88.5866 137.035 86.2375 143.214 84.194 149.513C84.1377 149.69 83.9499 149.786 83.7741 149.729C83.5982 149.672 83.5026 149.484 83.559 149.307C84.6123 146.062 85.7459 142.847 86.9699 139.667L86.7036 130.747C86.6985 130.562 86.8436 130.407 87.0279 130.402C87.2123 130.397 87.366 130.543 87.3711 130.728L87.5913 138.079C89.5597 133.109 91.7534 128.227 94.2066 123.447L93.3701 117.136C93.3462 116.953 93.4742 116.785 93.6569 116.761C93.8395 116.737 94.0068 116.865 94.0307 117.049L94.7409 122.413C95.2957 121.352 95.8625 120.297 96.4447 119.246C98.1109 116.236 99.8863 113.267 101.783 110.347L100.962 104.141C100.938 103.957 101.066 103.789 101.249 103.765C101.431 103.741 101.599 103.87 101.623 104.053L102.343 109.491C103.372 107.93 104.436 106.381 105.535 104.849C105.556 104.794 105.59 104.744 105.638 104.706C108.811 100.294 112.284 95.9972 116.091 91.8311C116.215 91.694 116.425 91.6854 116.562 91.8106C116.698 91.9357 116.707 92.1466 116.582 92.2837C113.112 96.0829 109.919 99.9901 106.978 103.998L111.44 101.667C111.604 101.581 111.806 101.644 111.891 101.809C111.976 101.974 111.913 102.176 111.749 102.262L106.095 105.217C104.844 106.963 103.639 108.727 102.478 110.508C102.497 110.671 102.396 110.822 102.244 110.868C101.013 112.769 99.8334 114.691 98.7015 116.632L105.928 113.791C106.1 113.724 106.293 113.81 106.36 113.982C106.426 114.155 106.341 114.348 106.17 114.415L98.1621 117.563C97.7797 118.23 97.4024 118.9 97.0302 119.572C96.2944 120.903 95.5808 122.242 94.8877 123.587C94.8775 123.665 94.8399 123.735 94.7853 123.786C93.7098 125.883 92.6855 127.999 91.7073 130.133L99.2222 127.179C99.3947 127.112 99.5876 127.198 99.6541 127.369C99.7207 127.543 99.6371 127.736 99.4646 127.803L91.3573 130.99H91.3539Z" fill="#002F40"/>
<path fill-rule="evenodd" clip-rule="evenodd" d="M58.6804 72.4668L59.3206 78.8976L82.1181 76.4528L81.0938 72.9811L58.6804 72.4668Z" fill="#38676B"/>
<path fill-rule="evenodd" clip-rule="evenodd" d="M81.9064 41.7052L74.3334 38.5575C71.0915 37.5957 68.4352 31.8472 62.0589 36.6562C51.6776 45.6963 48.8676 52.6861 49.4583 58.7534C50.1924 65.2339 53.9908 66.8301 59.7747 64.3922C57.7074 66.7306 57.9907 69.5286 57.8166 71.6047C67.0575 76.5509 75.4755 76.8217 83.1493 72.8511L82.1693 67.9993C86.7684 73.8301 93.481 72.462 102.083 64.6562C103.258 57.7196 101.214 54.5016 95.4238 55.6074L89.8089 58.4928C88.9383 55.3897 89.5699 45.0071 81.9081 41.7069" fill="#F7E9D4"/>
<path fill-rule="evenodd" clip-rule="evenodd" d="M81.3038 73.5576C74.5059 75.9955 67.1889 76.455 58.648 72.2461L60.9988 121.16L74.709 120.241L73.4679 91.7185L78.1029 106.996C80.5134 110.709 84.5508 112.309 89.9199 112.175C90.1725 110.689 92.187 106.579 91.4614 103.322C89.3155 93.7056 83.7092 81.204 81.3021 73.5559" fill="#457D82"/>
<path fill-rule="evenodd" clip-rule="evenodd" d="M75.8187 35.0685L89.3343 28.1834C94.5651 26.8633 96.53 24.6294 94.297 22.4795C94.5224 20.1616 92.8323 19.4004 89.4009 20.0536C88.7044 17.518 87.3557 17.7374 86.0053 18.6769C83.5675 15.1709 79.3252 15.4092 74.9719 18.022C71.9912 18.6769 72.8602 23.7259 72.7526 26.0215C70.7313 30.5922 71.2059 32.8809 74.0586 34.4805L75.8221 35.0702L75.8187 35.0685Z" fill="#621014"/>
<path fill-rule="evenodd" clip-rule="evenodd" d="M82.4271 38.3862C83.4719 38.1959 84.4194 37.661 85.0818 36.9906C85.99 36.0717 88.4893 30.1946 89.2626 27.7036L86.0378 24.5148C83.4565 24.5919 81.7255 24.5182 80.3649 23.0215L77.3654 23.4947L76.0082 26.7726C75.7419 22.7832 73.4645 25.1354 73.444 27.6796C73.4338 28.9414 73.9971 29.9872 74.4649 29.6649C74.0501 31.2884 74.3164 32.8794 75.1409 34.455L72.4129 41.3521C73.6352 46.3582 80.2846 45.4856 81.4489 41.5373L82.4271 38.3862Z" fill="#FF8F69"/>
<path fill-rule="evenodd" clip-rule="evenodd" d="M83.0878 38.2164C83.868 37.9592 84.5628 37.5152 85.0835 36.9889C85.343 36.7266 85.7339 36.0562 86.1778 35.175C85.9217 35.0824 85.6451 35.0327 85.3566 35.0327C84.0267 35.0327 82.9478 36.0974 82.9478 37.4123C82.9478 37.6935 82.9973 37.9644 83.0895 38.2164" fill="#FFBA55"/>
<path fill-rule="evenodd" clip-rule="evenodd" d="M74.3966 29.9629C74.0979 31.4236 74.3471 32.8586 75.0556 34.2815C75.735 33.8615 76.1874 33.114 76.1874 32.2636C76.1874 31.1596 75.4277 30.2321 74.3966 29.9629Z" fill="#FFBA55"/>
<path fill-rule="evenodd" clip-rule="evenodd" d="M49.4566 58.755C49.9927 63.4782 52.1573 65.6058 55.5307 65.4669C56.6813 64.6389 57.4325 63.2845 57.4325 61.7535C57.4325 59.2316 55.3976 57.188 52.8863 57.188C51.5172 57.188 50.2914 57.7949 49.4566 58.7567" fill="#FFBA55"/>
<path fill-rule="evenodd" clip-rule="evenodd" d="M89.8072 58.4909C89.7679 58.352 89.7321 58.1977 89.6979 58.0314C89.6672 58.028 89.6348 58.028 89.6023 58.0314L87.0109 58.3434C86.7906 58.3691 86.6336 58.5697 86.6609 58.7909C86.6865 59.012 86.8862 59.1698 87.1065 59.144C88.4876 58.9777 90.3552 58.2474 89.8089 58.4926" fill="#F2E1C6"/>
<path fill-rule="evenodd" clip-rule="evenodd" d="M82.4374 38.3636C79.6513 39.3203 76.242 37.2355 75.0095 34.3364C74.6612 35.4285 74.6049 36.6355 74.1798 37.2955C73.7206 38.007 79.1903 41.8113 82.4374 38.3653" fill="#EF5F2B"/>
<path fill-rule="evenodd" clip-rule="evenodd" d="M85.0664 29.6718C84.8752 29.5878 84.6498 29.6769 84.5662 29.8706L84.3391 30.397C84.2555 30.589 84.3443 30.8153 84.5372 30.8993C84.7301 30.9833 84.9537 30.8941 85.0374 30.7004L85.2644 30.1741C85.3481 29.9821 85.2593 29.7558 85.0664 29.6718Z" fill="#621014"/>
<path fill-rule="evenodd" clip-rule="evenodd" d="M79.6069 27.5541C79.4157 27.4701 79.1903 27.5592 79.1067 27.753L78.8796 28.2793C78.796 28.4713 78.8847 28.6976 79.0777 28.7816C79.2689 28.8656 79.4942 28.7765 79.5779 28.5827L79.8049 28.0564C79.8886 27.8644 79.7998 27.6381 79.6069 27.5541Z" fill="#621014"/>
<path fill-rule="evenodd" clip-rule="evenodd" d="M84.5713 28.3084C85.3737 27.9861 86.1368 28.2535 86.1658 29.3422C86.1726 29.6302 85.8927 29.6165 85.8807 29.5565C85.7339 28.8279 85.1381 28.629 84.6276 28.7661C84.5235 28.7936 84.1428 28.4816 84.573 28.3084" fill="#621014"/>
<path fill-rule="evenodd" clip-rule="evenodd" d="M79.2279 26.1948C80.0303 25.8725 80.7934 26.1417 80.8224 27.2303C80.8292 27.5184 80.5492 27.5046 80.5373 27.4446C80.3905 26.716 79.7947 26.5171 79.2842 26.6543C79.1801 26.6817 78.7994 26.3697 79.2296 26.1965" fill="#621014"/>
<path d="M74.3334 26.8599C74.2703 26.8788 74.202 26.8428 74.1832 26.7776C74.1644 26.7142 74.2003 26.6456 74.2651 26.6268C74.3932 26.5891 74.5059 26.5908 74.6066 26.6268C74.7158 26.6645 74.8063 26.7382 74.8763 26.8376C74.9429 26.9285 74.9924 27.0417 75.0282 27.1651C75.1443 27.5611 75.1239 28.0926 75.0214 28.3978C74.9992 28.4612 74.9309 28.4955 74.8678 28.4732C74.8046 28.4509 74.7705 28.3823 74.7927 28.3189C74.8831 28.0532 74.9002 27.5851 74.7978 27.2337C74.7688 27.1342 74.7295 27.0468 74.6817 26.9799C74.639 26.9199 74.5878 26.8771 74.528 26.8565C74.4734 26.8376 74.4103 26.8376 74.3334 26.8599Z" fill="#EF5F2B"/>
<path fill-rule="evenodd" clip-rule="evenodd" d="M85.2849 31.9242C85.1022 31.9156 84.9452 32.0596 84.9384 32.2448L84.9127 32.8346C84.9042 33.018 85.0476 33.1757 85.2303 33.1843C85.4129 33.1929 85.57 33.0489 85.5768 32.8637L85.6024 32.2739C85.611 32.0905 85.4676 31.9328 85.2832 31.9242" fill="#F8444F"/>
<path fill-rule="evenodd" clip-rule="evenodd" d="M84.2555 31.9774C84.0472 31.9688 83.8714 32.1317 83.8611 32.3408L83.8321 33.0095C83.8236 33.2186 83.9858 33.3952 84.194 33.4055C84.4023 33.4141 84.5798 33.2512 84.5884 33.042L84.6174 32.3734C84.6259 32.1642 84.4638 31.9859 84.2555 31.9774Z" fill="#F8444F"/>
<path fill-rule="evenodd" clip-rule="evenodd" d="M77.8417 33.9816C78.2992 36.171 80.3427 37.1122 82.3025 35.3C82.9119 34.736 82.97 34.6485 82.2837 34.4445C81.1689 34.4068 79.9125 34.1479 78.236 33.2324C77.6505 33.0576 77.6948 33.2821 77.8417 33.9816Z" fill="#F3EFEC"/>
<path d="M82.0071 29.3734C82.0498 29.2619 82.1727 29.2071 82.2837 29.2499C82.3947 29.2928 82.4493 29.4179 82.4066 29.5277L81.9901 30.6283C82.2308 30.9661 82.3008 31.2558 82.2632 31.4872C82.2393 31.645 82.1659 31.7753 82.0652 31.8747C81.9679 31.9707 81.8467 32.0376 81.7135 32.0753C81.4489 32.1507 81.1331 32.1096 80.906 31.9484C80.8087 31.8798 80.7865 31.7444 80.8548 31.6467C80.9231 31.549 81.058 31.5267 81.1553 31.5953C81.2748 31.681 81.4489 31.7015 81.5957 31.6587C81.6606 31.6398 81.7203 31.609 81.763 31.5661C81.8023 31.5284 81.8296 31.4787 81.8381 31.4204C81.8603 31.2764 81.7938 31.0706 81.5769 30.7963C81.5326 30.738 81.5172 30.6592 81.5445 30.5855L82.0037 29.3734H82.0071Z" fill="#621014"/>
<path fill-rule="evenodd" clip-rule="evenodd" d="M77.7358 29.0322C77.8673 29.1608 77.869 29.3734 77.7409 29.5054L77.3295 29.9271C77.2015 30.0591 76.9898 30.0608 76.8583 29.9323C76.7269 29.8037 76.7252 29.5911 76.8532 29.4591L77.2646 29.0373C77.3927 28.9053 77.6044 28.9036 77.7358 29.0322Z" fill="#F8444F"/>
<path fill-rule="evenodd" clip-rule="evenodd" d="M78.4016 29.8225C78.5501 29.9683 78.5535 30.21 78.4067 30.3592L77.9407 30.8375C77.7956 30.9866 77.5549 30.9884 77.4063 30.8426C77.2578 30.6969 77.2561 30.4552 77.4012 30.306L77.8673 29.8277C78.0124 29.6785 78.2531 29.6751 78.4016 29.8225Z" fill="#F8444F"/>
<path fill-rule="evenodd" clip-rule="evenodd" d="M74.3488 111.962L74.062 105.356C73.263 104.655 72.2166 104.23 71.0728 104.23C68.5615 104.23 66.5266 106.274 66.5266 108.795C66.5266 111.317 68.5615 113.361 71.0728 113.361C72.36 113.361 73.5225 112.824 74.3488 111.96" fill="#00BEB0"/>
<path fill-rule="evenodd" clip-rule="evenodd" d="M91.4512 106.692C91.6458 105.559 91.7022 104.396 91.4631 103.323C91.0756 101.585 90.5737 99.7521 89.9984 97.8696C89.9369 97.8662 89.8738 97.8662 89.8106 97.8662C87.2994 97.8662 85.2644 99.9098 85.2644 102.432C85.2644 104.954 87.2994 106.997 89.8106 106.997C90.3893 106.997 90.9408 106.889 91.4495 106.69" fill="#00BEB0"/>
<path fill-rule="evenodd" clip-rule="evenodd" d="M73.4696 128.373L65.7003 129.422L68.0511 144.306C70.6033 145.025 72.9643 144.222 75.1682 142.143L73.4713 128.374L73.4696 128.373Z" fill="#FF8F69"/>
<path fill-rule="evenodd" clip-rule="evenodd" d="M83.4582 119.719C80.8275 120.202 78.4716 119.04 76.5374 115.326L74.709 120.9L74.3829 127.457C76.015 128.428 77.647 128.562 79.2791 127.785L83.4582 119.72V119.719Z" fill="#FF8F69"/>
<path fill-rule="evenodd" clip-rule="evenodd" d="M76.5988 115.149C76.2984 116.025 75.9979 116.902 75.6975 117.778C78.0038 119.727 80.3888 120.941 82.9034 120.905L83.6187 119.6L76.5988 115.149Z" fill="#EF5F2B"/>
<path fill-rule="evenodd" clip-rule="evenodd" d="M90.0496 111.729C84.3921 111.657 80.3375 110.129 77.9885 106.387L75.0351 111.588C77.21 118.931 80.6721 120.639 84.7642 119.588L90.0496 111.729Z" fill="#449EA6"/>
<path fill-rule="evenodd" clip-rule="evenodd" d="M87.832 151.847C88.3271 150.914 89.126 149.573 86.2648 148.896L75.1 141.815L67.9691 144.125L67.1343 151.521C70.1816 153.259 73.2289 153.695 76.2745 153.16C78.7533 153.53 80.6875 153.645 82.6986 153.828C84.9213 154.031 86.9631 153.302 87.832 151.85" fill="#FFBA55"/>
<path fill-rule="evenodd" clip-rule="evenodd" d="M88.0915 149.801C87.9003 149.278 86.7667 149.086 86.4714 148.934C83.39 150.96 80.8531 152.098 77.531 151.816C74.173 151.529 70.7689 149.971 67.387 149.311L67.0848 151.524C67.7096 151.829 68.6981 152.371 69.6541 152.62C71.7812 153.4 73.1111 153.515 77.3995 153.352C77.8622 153.335 80.7558 153.784 82.492 153.96C85.9046 154.31 89.0304 152.224 88.1154 149.83L88.0949 149.801H88.0915Z" fill="#E78F2B"/>
<path fill-rule="evenodd" clip-rule="evenodd" d="M79.6069 127.075L79.542 135.651L83.9823 143.978C83.2124 145.665 81.944 146.181 80.131 145.421L74.9736 141.749L73.4064 128.503L74.7193 127.046C76.0918 128.592 77.5583 128.659 79.6086 127.075" fill="#FFBA55"/>
<path fill-rule="evenodd" clip-rule="evenodd" d="M70.2738 50.6509C70.6767 48.8885 71.6788 45.0893 67.3699 43.6475C67.1138 44.3092 65.6098 46.9477 64.8109 47.8032C61.4597 51.3915 56.5943 53.4265 56.5106 54.5495C62.7537 49.3822 68.6264 48.3827 70.2738 50.6509Z" fill="#F2E1C6"/>
<path fill-rule="evenodd" clip-rule="evenodd" d="M70.6272 57.9526C69.6882 61.4946 60.5259 72.7293 58.158 71.7983C57.8542 71.6783 57.8798 66.9242 59.546 64.332C66.2978 62.3484 68.4625 61.2135 70.6272 57.9526Z" fill="#F2E1C6"/>
<path fill-rule="evenodd" clip-rule="evenodd" d="M75.5575 43.4399H80.061C80.5561 43.4399 80.9607 43.8463 80.9607 44.3434V53.4573C80.9607 53.9545 80.5561 54.3608 80.061 54.3608H75.5575C75.0624 54.3608 74.6578 53.9545 74.6578 53.4573V44.3434C74.6578 43.8463 75.0624 43.4399 75.5575 43.4399Z" fill="#5D6AB0"/>
<path fill-rule="evenodd" clip-rule="evenodd" d="M72.2217 56.1508L72.0441 49.8846L74.7858 47.5736L74.8371 49.6446L81.4335 47.3164C83.4412 48.4445 83.5112 49.0874 82.0054 52.6877C80.7968 54.6353 79.4532 55.6742 74.1252 55.0759L72.2234 56.1508H72.2217Z" fill="#FF8F69"/>
<path fill-rule="evenodd" clip-rule="evenodd" d="M71.8973 49.5176L69.2853 49.8725C71.1718 52.2075 71.3049 55.17 70.5555 58.4497L72.109 57.5291C73.0394 54.558 72.8499 51.9246 71.8973 49.5193" fill="#FFBA55"/>
<path fill-rule="evenodd" clip-rule="evenodd" d="M103.616 61.8787L103.162 56.3566C105.194 52.1562 108.448 49.84 112.589 48.8834C114.705 48.8491 111.78 50.3526 111.376 51.0881L116.867 50.0046C117.159 50.3869 117.154 50.9681 116.558 51.3744C116.349 51.7979 116.137 52.2197 115.927 52.6431C115.37 53.7609 115.193 53.6598 114.44 54.1638L103.616 61.8804V61.8787Z" fill="#FF8F69"/>
<path fill-rule="evenodd" clip-rule="evenodd" d="M103.13 55.8184L100.518 56.1732C102.404 58.5083 102.538 61.4708 101.788 64.7505L103.342 63.8299C104.272 60.8588 104.083 58.2254 103.13 55.8201" fill="#FFBA55"/>
<path fill-rule="evenodd" clip-rule="evenodd" d="M73.246 128.57C74.3642 133.797 74.231 138.308 75.8272 141.006C78.7721 145.982 83.3183 142.812 83.938 143.885C84.4552 144.778 81.9781 146.335 81.2782 145.877L74.8217 141.793L73.246 128.572V128.57Z" fill="#E78F2B"/>
<path fill-rule="evenodd" clip-rule="evenodd" d="M65.5193 129.216L66.1186 131.944L73.4525 129.796L73.2545 128.321L65.5193 129.216Z" fill="#EF5F2B"/>
<path fill-rule="evenodd" clip-rule="evenodd" d="M74.8405 120.166L61.0688 121.085C59.7286 123.201 60.4508 125.145 61.3146 127.368C62.2126 129.681 62.3457 129.933 65.0994 129.717L72.4317 128.819C74.1713 128.683 75.1853 127.956 75.3594 126.772L74.8422 120.168L74.8405 120.166Z" fill="#449EA6"/>
<path fill-rule="evenodd" clip-rule="evenodd" d="M85.512 70.816L82.4186 68.2683L81.5462 54.6489C82.4544 63.4645 87.1884 67.8671 85.512 70.816Z" fill="#F2E1C6"/>
<path fill-rule="evenodd" clip-rule="evenodd" d="M84.5969 70.2864C87.045 71.9031 89.9369 72.0059 93.2523 70.6652C93.4332 70.1732 93.5305 69.6417 93.5305 69.088C93.5305 66.5661 91.4956 64.5225 88.9843 64.5225C86.4731 64.5225 84.4382 66.5661 84.4382 69.088C84.4382 69.5029 84.4945 69.9058 84.5969 70.2881" fill="#FFBA55"/>
<path fill-rule="evenodd" clip-rule="evenodd" d="M78.0192 106.037L73.6642 92.0166L73.4082 83.7856L78.0192 106.037Z" fill="#38676B"/>
<path fill-rule="evenodd" clip-rule="evenodd" d="M58.5609 149.292C69.3263 151.259 72.3685 117.047 81.7784 133.423C84.7779 138.642 79.1716 145.707 70.6391 149.539C63.8412 152.591 45.2997 153.971 43.3176 145.219C43.1162 143.479 44.7107 144.204 47.1605 145.826C44.7926 143.389 42.9284 141.032 42.8789 139.906C43.8537 136.142 47.7955 147.326 58.5609 149.292Z" fill="#F8444F"/>
<path fill-rule="evenodd" clip-rule="evenodd" d="M31.5604 134.893C35.9905 135.076 34.1689 148.874 39.3365 143.237C40.9839 141.44 39.3929 138.147 36.3575 135.872C33.9402 134.058 26.7308 131.86 25.1739 135.143C24.94 135.813 25.6348 135.669 26.7479 135.246C25.5973 135.999 24.6515 136.765 24.532 137.206C24.5849 138.781 27.132 134.709 31.5621 134.893" fill="#F8444F"/>
<path fill-rule="evenodd" clip-rule="evenodd" d="M32.8664 51.52C40.0382 51.52 45.8528 57.3594 45.8528 64.5599C45.8528 71.7605 40.0382 77.6016 32.8664 77.6016C25.6946 77.6016 19.8817 71.7622 19.8817 64.5599C19.8817 57.3576 25.6963 51.52 32.8664 51.52Z" fill="#FFBA55"/>
<path fill-rule="evenodd" clip-rule="evenodd" d="M43.91 57.627C43.9954 57.7624 44.0773 57.8978 44.1559 58.035L33.0883 65.0916L33.5134 51.5888C33.5219 51.299 36.5573 51.7293 39.4526 53.3598C41.1973 54.3421 42.8004 55.8731 43.91 57.627Z" fill="#F8444F"/>
<path fill-rule="evenodd" clip-rule="evenodd" d="M44.2122 57.9836L33.1002 65.0677L45.9313 64.5876C45.9791 62.4806 45.5233 60.4284 44.2122 57.9819" fill="#00BEB0"/>
<path fill-rule="evenodd" clip-rule="evenodd" d="M118.298 61.4691C124.739 59.2918 125.823 55.0006 132.073 53.5913L139.476 56.2247C132.589 57.3133 131.839 62.0983 126.673 64.5328L118.298 61.4691Z" fill="#0C948B"/>
<path fill-rule="evenodd" clip-rule="evenodd" d="M130.568 56.2708C131.165 56.4405 131.604 56.768 131.846 57.1795C132.107 57.6218 132.16 58.191 131.901 58.8047C131.604 59.5042 130.96 60.1317 130.124 60.5535C129.195 61.0215 128.087 61.2066 127.121 60.9478C126.149 60.6872 125.627 60.058 125.577 59.3156C125.531 58.6436 125.878 57.9218 126.551 57.3149C127.14 56.7834 127.886 56.4303 128.608 56.2622C129.279 56.1079 129.972 56.1011 130.568 56.2708Z" fill="#00BEB0"/>
<path fill-rule="evenodd" clip-rule="evenodd" d="M50.5048 40.0712C43.0428 37.5493 41.788 32.5774 34.5479 30.9453L25.9728 33.9953C33.9521 35.2571 34.8194 40.7998 40.803 43.6183L50.5048 40.0695V40.0712Z" fill="#0C948B"/>
<path fill-rule="evenodd" clip-rule="evenodd" d="M36.291 34.0501C35.5996 34.2473 35.0908 34.6262 34.8091 35.1028C34.507 35.6137 34.4455 36.2755 34.746 36.9852C35.0891 37.7945 35.8351 38.5214 36.8048 39.0117C37.8803 39.5535 39.1641 39.7695 40.284 39.4677C41.4107 39.166 42.0151 38.4374 42.0731 37.5784C42.126 36.8001 41.7249 35.9634 40.9447 35.2605C40.2618 34.6451 39.398 34.2353 38.5615 34.0416C37.7847 33.8616 36.9824 33.8547 36.291 34.0519" fill="#00BEB0"/>
<path fill-rule="evenodd" clip-rule="evenodd" d="M117.404 78.1296C111.69 76.1974 110.729 72.3914 105.184 71.1416L98.6162 73.4784C104.726 74.4436 105.39 78.6885 109.972 80.847L117.402 78.1296H117.404Z" fill="#0C948B"/>
<path fill-rule="evenodd" clip-rule="evenodd" d="M106.519 73.5179C105.989 73.6688 105.6 73.9585 105.383 74.3237C105.151 74.7146 105.105 75.2204 105.336 75.7655C105.598 76.3862 106.169 76.9416 106.913 77.3171C107.736 77.732 108.721 77.8966 109.578 77.6668C110.44 77.4354 110.903 76.8782 110.947 76.2199C110.988 75.6232 110.681 74.9838 110.083 74.4454C109.561 73.974 108.898 73.6602 108.258 73.5128C107.664 73.3756 107.05 73.3688 106.519 73.5196" fill="#00BEB0"/>
<path fill-rule="evenodd" clip-rule="evenodd" d="M21.7988 85.697C16.0849 83.7648 15.1238 79.9588 9.57891 78.709L3.01315 81.0457C9.1231 82.011 9.78719 86.2559 14.3692 88.4144L21.7988 85.697Z" fill="#0C948B"/>
<path fill-rule="evenodd" clip-rule="evenodd" d="M10.9139 81.0856C10.3847 81.2365 9.99546 81.5263 9.77865 81.8914C9.54647 82.2823 9.50038 82.7881 9.73085 83.3333C9.99375 83.9539 10.5639 84.5094 11.3083 84.8848C12.1311 85.2997 13.1162 85.4643 13.9714 85.2346C14.8336 85.0031 15.2962 84.4459 15.3406 83.7876C15.3816 83.191 15.0726 82.5515 14.4768 82.0131C13.9544 81.5417 13.292 81.2279 12.6518 81.0805C12.0577 80.9433 11.4414 80.9382 10.9122 81.0874" fill="#00BEB0"/>
<path fill-rule="evenodd" clip-rule="evenodd" d="M105.175 19.8325H135.971C137.925 19.8325 139.523 21.4372 139.523 23.4002V40.0525C139.523 42.0155 137.925 43.6202 135.971 43.6202H105.175C103.22 43.6202 101.622 42.0138 101.622 40.0525V23.4002C101.622 21.4372 103.22 19.8325 105.175 19.8325Z" fill="#FFF1DB"/>
<path fill-rule="evenodd" clip-rule="evenodd" d="M112.722 43.6218H108.787C108.735 43.4384 108.706 43.2464 108.706 43.0458V39.7524C108.706 38.6209 109.627 37.6934 110.756 37.6934C111.884 37.6934 112.806 38.6191 112.806 39.7524V43.0458C112.806 43.2447 112.777 43.4384 112.724 43.6218" fill="#5D6AB0"/>
<path fill-rule="evenodd" clip-rule="evenodd" d="M117.156 43.622H113.166C113.131 43.4694 113.112 43.3117 113.112 43.1506V31.3124C113.112 30.1792 114.034 29.2534 115.162 29.2534C116.289 29.2534 117.212 30.1792 117.212 31.3124V43.1506C117.212 43.3134 117.194 43.4711 117.158 43.622" fill="#5D6AB0"/>
<path fill-rule="evenodd" clip-rule="evenodd" d="M121.537 43.622H117.602C117.549 43.4385 117.52 43.2465 117.52 43.0476V35.9448C117.52 34.8132 118.442 33.8857 119.57 33.8857C120.697 33.8857 121.62 34.8115 121.62 35.9448V43.0476C121.62 43.2465 121.591 43.4402 121.538 43.622" fill="#5D6AB0"/>
<path fill-rule="evenodd" clip-rule="evenodd" d="M126.095 43.622H122.062C122.04 43.502 122.028 43.3785 122.028 43.2534V29.2534C122.028 28.1218 122.95 27.1943 124.079 27.1943C125.205 27.1943 126.129 28.1201 126.129 29.2534V43.2534C126.129 43.3785 126.117 43.5037 126.095 43.622Z" fill="#5D6AB0"/>
<path fill-rule="evenodd" clip-rule="evenodd" d="M130.503 43.6218H126.469C126.446 43.5017 126.434 43.3783 126.434 43.2532V25.8569C126.434 24.7254 127.356 23.7979 128.485 23.7979C129.611 23.7979 130.535 24.7236 130.535 25.8569V43.2532C130.535 43.3783 130.523 43.5035 130.501 43.6218" fill="#5D6AB0"/>
<path d="M105.53 24.1493C105.31 24.1493 105.129 23.971 105.129 23.7498C105.129 23.5287 105.307 23.3469 105.527 23.3469L118.682 23.2681C118.902 23.2681 119.082 23.4464 119.083 23.6675C119.083 23.8887 118.906 24.0687 118.686 24.0704L105.53 24.1493Z" fill="white"/>
<path d="M107.476 25.7128C107.256 25.7128 107.077 25.5345 107.075 25.3133C107.075 25.0921 107.253 24.9121 107.473 24.9104L118.761 24.8315C118.981 24.8315 119.16 25.0098 119.162 25.231C119.162 25.4522 118.984 25.6322 118.764 25.6339L107.476 25.7128Z" fill="white"/>
</g>
<defs>
<clipPath id="clip0_22_134">
<rect width="141" height="154" fill="white"/>
</clipPath>
</defs>
</svg>
