<svg width="567" height="471" viewBox="0 0 567 471" fill="none" xmlns="http://www.w3.org/2000/svg">
<g clip-path="url(#clip0_60_142)">
<path fill-rule="evenodd" clip-rule="evenodd" d="M232.195 89.8987C191.62 181.49 151.524 264.689 42.9208 272.513C-45.7409 278.9 15.1824 416.229 114.643 352.302C128.627 343.312 233.248 414.871 288.787 367.55C328.633 333.598 375.25 221.793 457.688 223.672C563.914 226.093 554.595 92.4755 513.201 46.045C474.575 2.71192 293.27 -47.9665 232.195 89.8987Z" fill="#FAE3C0"/>
<path d="M178.162 307.59C183.291 304.68 193.882 297.777 207.845 288.683C261.565 253.684 364.951 186.337 402.003 186.836L401.961 190.361C365.983 189.876 263.186 256.844 209.768 291.639C195.748 300.77 185.115 307.699 179.909 310.656L178.162 307.585V307.59Z" fill="#FFBA55"/>
<path d="M486.834 220.955C486.912 221.423 487.36 221.741 487.829 221.658C488.298 221.579 488.616 221.132 488.533 220.663C485.166 200.725 480.163 182.395 474.002 165.206C472.214 160.208 470.327 155.31 468.352 150.494L477.166 130.832C477.228 130.842 477.296 130.848 477.358 130.853C479.579 131.061 481.565 129.291 481.789 126.902C482.013 124.512 480.392 122.404 478.172 122.196C475.951 121.987 473.965 123.757 473.741 126.147C473.585 127.823 474.336 129.359 475.56 130.202L467.445 148.303C465.485 143.607 463.448 138.995 461.342 134.45C461.368 134.372 461.384 134.283 461.384 134.195L462.025 107.062C462.092 107.021 462.155 106.969 462.212 106.906L471.485 96.8121C471.865 96.989 472.277 97.1036 472.715 97.14C474.935 97.3483 476.921 95.5783 477.145 93.1888C477.369 90.7993 475.748 88.691 473.528 88.4828C471.307 88.2745 469.322 90.0445 469.097 92.434C468.978 93.7042 469.379 94.8911 470.114 95.7605L462.082 104.506L462.546 84.9012C462.546 84.8439 462.546 84.7814 462.53 84.7242C464.438 84.5316 466.022 82.8969 466.22 80.773C466.445 78.3835 464.824 76.2752 462.603 76.0669C460.383 75.8587 458.397 77.6287 458.173 80.0181C457.98 82.0744 459.153 83.9173 460.894 84.5264C460.847 84.6253 460.826 84.7398 460.821 84.8543L459.726 131.019C457.412 126.147 455.02 121.347 452.565 116.615C452.502 116.495 452.414 116.396 452.315 116.318C453.029 115.61 453.519 114.632 453.623 113.517C453.847 111.128 452.226 109.02 450.006 108.811C447.785 108.603 445.8 110.373 445.576 112.763C445.351 115.152 446.972 117.26 449.193 117.469C449.813 117.526 450.412 117.432 450.965 117.208C450.98 117.271 451.007 117.339 451.038 117.396C458.538 131.852 465.439 146.892 471.339 162.915L452.81 150.645C452.742 150.604 452.674 150.567 452.601 150.546C452.799 150.099 452.93 149.609 452.982 149.094C453.206 146.704 451.585 144.596 449.365 144.388C447.144 144.18 445.159 145.95 444.934 148.339C444.71 150.729 446.331 152.837 448.552 153.045C449.735 153.154 450.845 152.707 451.663 151.905C451.715 151.973 451.783 152.03 451.856 152.082L472.032 165.44C472.115 165.497 472.209 165.534 472.303 165.56L472.376 165.763C478.495 182.848 483.472 201.079 486.823 220.934" fill="#E8A000"/>
<path d="M107.112 354.213C107.284 354.661 107.065 355.161 106.622 355.338C106.174 355.509 105.674 355.291 105.496 354.848C98.0433 335.91 92.8417 317.512 89.2246 299.495C88.1717 294.258 87.2544 289.057 86.457 283.883L68.6475 271.493C68.5954 271.535 68.5433 271.576 68.4912 271.613C66.6826 272.945 64.0557 272.446 62.6172 270.499C61.1839 268.552 61.4862 265.897 63.2948 264.569C65.1033 263.237 67.7302 263.736 69.1687 265.683C70.1746 267.047 70.3258 268.76 69.7056 270.124L86.1026 281.53C85.352 276.465 84.7162 271.431 84.1741 266.417C84.1116 266.36 84.0542 266.298 84.0073 266.225L69.3616 243.158C69.2834 243.158 69.2 243.147 69.1166 243.121L55.8729 239.222C55.6331 239.571 55.3412 239.883 54.9816 240.144C53.173 241.476 50.5462 240.977 49.1077 239.03C47.6743 237.083 47.9766 234.428 49.7852 233.1C51.5938 231.768 54.2206 232.267 55.6592 234.214C56.4201 235.245 56.6911 236.479 56.5087 237.609L67.9752 240.987L57.3948 224.323C57.3635 224.271 57.3374 224.219 57.3166 224.167C55.5706 224.99 53.3555 224.401 52.0837 222.673C50.6504 220.726 50.9527 218.071 52.7613 216.744C54.5699 215.411 57.1967 215.911 58.6352 217.858C59.8705 219.529 59.8184 221.726 58.6352 223.157C58.7238 223.22 58.8072 223.303 58.8698 223.402L83.7884 262.648C83.2516 257.245 82.8242 251.872 82.4802 246.516C82.4698 246.38 82.4958 246.25 82.5428 246.13C81.5577 245.891 80.6299 245.297 79.9628 244.392C78.5295 242.445 78.8318 239.79 80.6404 238.457C82.4489 237.124 85.0758 237.624 86.5143 239.571C87.9476 241.518 87.6453 244.173 85.8368 245.501C85.3312 245.87 84.7631 246.099 84.1741 246.193C84.195 246.255 84.2054 246.323 84.2106 246.396C85.253 262.747 87.1137 279.297 90.3452 296.169L99.9509 275.986C99.9874 275.913 100.029 275.85 100.076 275.788C99.6747 275.507 99.3046 275.153 98.9919 274.731C97.5586 272.784 97.8609 270.129 99.6695 268.802C101.478 267.469 104.105 267.969 105.543 269.916C106.977 271.863 106.674 274.518 104.866 275.85C103.907 276.558 102.713 276.746 101.593 276.48C101.582 276.564 101.556 276.652 101.515 276.735L91.054 298.709C91.0123 298.803 90.9497 298.886 90.882 298.954L90.9237 299.167C94.52 317.07 99.7007 335.373 107.117 354.229" fill="#E8A000"/>
<path fill-rule="evenodd" clip-rule="evenodd" d="M212.374 175.113L205.307 170.641C204.926 165.768 206.782 158.386 208.83 153.831C213.026 145.294 217.769 149.229 212.598 160.729C219.765 156.825 221.469 149.625 224.383 142.472C229.918 144.19 225.274 151.015 223.778 154.841L227.562 146.324C228.302 145.486 230.799 147.824 228.844 156.132C228.078 159.391 229.6 149.281 231.992 151.978C233.128 165.107 224.607 171.979 212.379 175.118" fill="#FF8F69"/>
<path fill-rule="evenodd" clip-rule="evenodd" d="M332.6 140.651C342.43 172.812 391.662 161.25 373.129 134.096C363.403 148.772 351.561 148.313 337.775 134.096C336.514 129.375 332.308 123.024 328.863 119.406C322.066 112.747 318.903 118.031 327.602 127.162C319.544 125.856 315.541 119.63 310.417 113.851C305.763 117.308 312.419 122.206 315.103 125.314L308.703 118.536C307.728 117.995 306.149 121.019 310.756 128.214C312.56 131.03 307.765 122.003 306.404 125.335C309.698 138.094 320.018 141.749 332.6 140.656" fill="#FF8F69"/>
<path fill-rule="evenodd" clip-rule="evenodd" d="M266.1 69.9297C299.717 69.9297 326.971 97.1508 326.971 130.728C326.971 164.306 299.717 191.527 266.1 191.527C232.482 191.527 205.229 164.306 205.229 130.728C205.229 97.1508 232.482 69.9297 266.1 69.9297Z" fill="#EF5F2B"/>
<path fill-rule="evenodd" clip-rule="evenodd" d="M229.381 183.843L222.314 179.371C221.933 174.498 223.788 167.117 225.837 162.556C230.032 154.019 234.775 157.954 229.605 169.454C236.772 165.55 238.476 158.35 241.39 151.197C246.925 152.915 242.281 159.74 240.785 163.566L244.783 155.211C245.523 154.373 247.206 155.95 245.252 164.259C244.485 167.517 246.602 158.001 248.994 160.698C250.13 173.827 241.608 180.699 229.381 183.838" fill="#FF8F69"/>
<path fill-rule="evenodd" clip-rule="evenodd" d="M99.018 422.461L74.9854 411.383L82.3812 394.235L107.472 403.465L99.018 422.461Z" fill="#FF8F69"/>
<mask id="mask0_60_142" style="mask-type:luminance" maskUnits="userSpaceOnUse" x="74" y="394" width="34" height="29">
<path d="M99.018 422.461L74.9854 411.383L82.3812 394.235L107.472 403.465L99.018 422.461Z" fill="white"/>
</mask>
<g mask="url(#mask0_60_142)">
<path fill-rule="evenodd" clip-rule="evenodd" d="M111.178 397.484L81.3388 395.526L106.289 407.255L111.178 397.484Z" fill="#EF5F2B"/>
</g>
<path fill-rule="evenodd" clip-rule="evenodd" d="M215.053 410.753L192.449 419.509L184.782 394.995L209.299 389.446L215.053 410.753Z" fill="#FF8F69"/>
<mask id="mask1_60_142" style="mask-type:luminance" maskUnits="userSpaceOnUse" x="184" y="389" width="32" height="31">
<path d="M215.053 410.753L192.449 419.509L184.782 394.995L209.299 389.446L215.053 410.753Z" fill="white"/>
</mask>
<g mask="url(#mask1_60_142)">
<path fill-rule="evenodd" clip-rule="evenodd" d="M210.394 383.548L185.678 398.936L213.375 393.069L210.394 383.548Z" fill="#EF5F2B"/>
</g>
<path fill-rule="evenodd" clip-rule="evenodd" d="M168.744 128.323C139.63 108.291 150.221 138.396 146.802 147.304C146.802 147.304 171.653 164.988 172.705 146.788C180.852 139.948 169.182 142.53 168.744 128.323Z" fill="#FF8F69"/>
<mask id="mask2_60_142" style="mask-type:luminance" maskUnits="userSpaceOnUse" x="146" y="121" width="30" height="35">
<path d="M168.744 128.323C139.63 108.291 150.221 138.396 146.802 147.304C146.802 147.304 171.653 164.988 172.705 146.788C180.852 139.948 169.182 142.53 168.744 128.323Z" fill="white"/>
</mask>
<g mask="url(#mask2_60_142)">
<path fill-rule="evenodd" clip-rule="evenodd" d="M153.275 142.499C157.335 142.499 160.629 145.94 160.629 150.177C160.629 154.415 157.335 157.856 153.275 157.856C149.215 157.856 145.921 154.415 145.921 150.177C145.921 145.94 149.215 142.499 153.275 142.499Z" fill="#FFBA55"/>
</g>
<path fill-rule="evenodd" clip-rule="evenodd" d="M145.254 146.241L159.764 154.18L157.653 169.214C155.86 160.724 151.347 155.284 143.919 153.123L145.254 146.241Z" fill="#FF8F69"/>
<mask id="mask3_60_142" style="mask-type:luminance" maskUnits="userSpaceOnUse" x="143" y="146" width="17" height="24">
<path d="M145.254 146.241L159.764 154.18L157.653 169.214C155.86 160.724 151.347 155.284 143.919 153.123L145.254 146.241Z" fill="white"/>
</mask>
<g mask="url(#mask3_60_142)">
<path fill-rule="evenodd" clip-rule="evenodd" d="M161.15 148.589L148.334 146.887L158.586 159.901L161.15 148.589Z" fill="#EF5F2B"/>
</g>
<path fill-rule="evenodd" clip-rule="evenodd" d="M168.317 128.651C163.366 125.439 154.265 120.978 154.031 126.1C152.577 157.496 137.186 153.301 124.64 175.545C118.98 174.129 108.676 168.127 107.545 162.687C107.321 161.609 113.101 157.356 115.243 154.763C116.134 153.686 105.934 161.364 105.382 160.058C104.225 157.304 103.422 154.305 102.812 151.135C135.757 147.356 124.989 127.438 139.693 114.075C152.019 104.491 165.664 118.911 178.517 120.671C182.744 126.912 175.447 132.165 168.317 128.646" fill="#621014"/>
<path fill-rule="evenodd" clip-rule="evenodd" d="M137.582 159.188C142.835 163.967 149.861 167.715 157.393 172.114C158.539 159.365 150.44 155.055 144.978 152.858L137.582 159.188Z" fill="#F8444F"/>
<path fill-rule="evenodd" clip-rule="evenodd" d="M155.277 234.11L155.183 234.1C155.037 233.751 154.896 233.402 154.755 233.053L154.688 234.042L118.568 229.888L101.932 321.161L98.2362 322.218L98.502 328.814L75.2616 386.848C86.3893 400.31 101.374 404.782 118.839 403.465C126.157 385.344 140.188 359.96 148.97 340.256L175.364 398.452C190.275 399.051 202.8 395.131 216.299 384.469C206.766 361.017 203.311 331.495 193.778 308.048C182.968 281.452 166.274 260.733 155.282 234.324V234.105L155.277 234.11Z" fill="#449EA6"/>
<mask id="mask4_60_142" style="mask-type:luminance" maskUnits="userSpaceOnUse" x="75" y="229" width="142" height="175">
<path d="M155.277 234.11L155.183 234.1C155.037 233.751 154.896 233.402 154.755 233.053L154.688 234.042L118.568 229.888L101.932 321.161L98.2362 322.218L98.502 328.814L75.2616 386.848C86.3893 400.31 101.374 404.782 118.839 403.465C126.157 385.344 140.188 359.96 148.97 340.256L175.364 398.452C190.275 399.051 202.8 395.131 216.299 384.469C206.766 361.017 203.311 331.495 193.778 308.048C182.968 281.452 166.274 260.733 155.282 234.324V234.105L155.277 234.11Z" fill="white"/>
</mask>
<g mask="url(#mask4_60_142)">
<path d="M101.744 320.349L112.809 319.615" stroke="#2B6E7E" stroke-width="4.25" stroke-miterlimit="22.93" stroke-linecap="round"/>
</g>
<path fill-rule="evenodd" clip-rule="evenodd" d="M100.602 421.144L73.4009 409.275C64.5092 416.355 58.6978 424.97 55.4402 434.861C76.3926 447.699 96.8185 464.758 120.674 471C141.449 444.643 108.165 439.921 105.486 433.274L100.602 421.139V421.144Z" fill="#F8444F"/>
<mask id="mask5_60_142" style="mask-type:luminance" maskUnits="userSpaceOnUse" x="55" y="409" width="73" height="62">
<path d="M100.602 421.144L73.4009 409.275C64.5092 416.355 58.6978 424.97 55.4402 434.861C76.3926 447.699 96.8185 464.758 120.674 471C141.449 444.643 108.165 439.921 105.486 433.274L100.602 421.139V421.144Z" fill="white"/>
</mask>
<g mask="url(#mask5_60_142)">
<path d="M57.8586 428.75C78.1542 444.565 101.4 458.902 124.651 467.346" stroke="#F3EFEC" stroke-width="5.67" stroke-miterlimit="22.93" stroke-linecap="round"/>
</g>
<path fill-rule="evenodd" clip-rule="evenodd" d="M216.966 408.369L189.41 419.405C188.227 430.697 186.856 440.619 191.636 449.875C215.496 443.966 245.429 441.66 266.621 429.057C262.389 395.782 235.672 416.162 229.053 413.403L216.966 408.369Z" fill="#F8444F"/>
<mask id="mask6_60_142" style="mask-type:luminance" maskUnits="userSpaceOnUse" x="188" y="408" width="79" height="42">
<path d="M216.966 408.369L189.41 419.405C188.227 430.697 186.856 440.619 191.636 449.875C215.496 443.966 245.429 441.66 266.621 429.057C262.389 395.782 235.672 416.162 229.053 413.403L216.966 408.369Z" fill="white"/>
</mask>
<g mask="url(#mask6_60_142)">
<path d="M188.467 443.41C214.271 438.251 242.291 433.826 264.776 422.399" stroke="#F3EFEC" stroke-width="5.67" stroke-miterlimit="22.93" stroke-linecap="round"/>
</g>
<path fill-rule="evenodd" clip-rule="evenodd" d="M215.256 180.948C219.926 183.754 224.138 186.68 227.046 190.891L231.007 186.607C227.948 182.255 224.06 178.569 218.889 175.8L215.256 180.948Z" fill="#621014"/>
<path fill-rule="evenodd" clip-rule="evenodd" d="M165.586 133.674C166.112 133.674 166.545 134.106 166.545 134.632V136.741C166.545 137.266 166.112 137.698 165.586 137.698C165.059 137.698 164.627 137.266 164.627 136.741V134.632C164.627 134.106 165.059 133.674 165.586 133.674Z" fill="#621014"/>
<path fill-rule="evenodd" clip-rule="evenodd" d="M158.664 130.385C158.226 134.632 166.154 129.437 166.003 129.666C164.502 128.333 162.078 128.526 158.664 130.385Z" fill="#621014"/>
<path fill-rule="evenodd" clip-rule="evenodd" d="M149.272 219.971L118.881 229.763C126.725 242.169 143.388 240.373 158.096 242.981L149.272 219.971Z" fill="#2B6E7E"/>
<path fill-rule="evenodd" clip-rule="evenodd" d="M113.544 226.989C109.697 198.685 120.293 177.117 137.576 158.663C173.706 172.932 161.401 198.294 180.628 198.232C191.193 200.783 204.134 175.634 215.225 179.767C223.231 186.441 229.256 190.147 230.048 196.675C232.878 219.94 195.096 241.185 163.194 230.94C145.619 237.104 129.003 236.297 113.539 226.984" fill="#FFBA55"/>
<mask id="mask7_60_142" style="mask-type:luminance" maskUnits="userSpaceOnUse" x="112" y="158" width="119" height="77">
<path d="M113.544 226.989C109.697 198.685 120.293 177.117 137.576 158.663C173.706 172.932 161.401 198.294 180.628 198.232C191.193 200.783 204.134 175.634 215.225 179.767C223.231 186.441 229.256 190.147 230.048 196.675C232.878 219.94 195.096 241.185 163.194 230.94C145.619 237.104 129.003 236.297 113.539 226.984" fill="white"/>
</mask>
<g mask="url(#mask7_60_142)">
<path fill-rule="evenodd" clip-rule="evenodd" d="M169.01 213.625C177.329 213.625 184.073 220.429 184.073 228.821C184.073 237.213 177.329 244.017 169.01 244.017C160.692 244.017 153.947 237.213 153.947 228.821C153.947 220.429 160.692 213.625 169.01 213.625Z" fill="#F8444F"/>
</g>
<path fill-rule="evenodd" clip-rule="evenodd" d="M158.279 137.688C158.742 137.902 158.946 138.459 158.732 138.922L158.044 140.411C157.83 140.874 157.273 141.083 156.809 140.864C156.345 140.65 156.136 140.093 156.355 139.63L157.043 138.141C157.257 137.678 157.815 137.475 158.279 137.688Z" fill="#F8444F"/>
<path fill-rule="evenodd" clip-rule="evenodd" d="M160.77 139.13C161.296 139.375 161.531 140.005 161.286 140.531L160.504 142.223C160.259 142.748 159.629 142.983 159.102 142.738C158.576 142.493 158.341 141.863 158.586 141.338L159.368 139.646C159.613 139.12 160.244 138.886 160.77 139.13Z" fill="#F8444F"/>
<path fill-rule="evenodd" clip-rule="evenodd" d="M144.331 348.065L149.152 337.742L111.261 268.245C120.215 298.522 119.527 332.234 144.331 348.065Z" fill="#2B6E7E"/>
<path fill-rule="evenodd" clip-rule="evenodd" d="M154.854 233.413L163.621 230.404C146.072 228.759 142.252 198.82 138.822 176.732C140.401 197.592 138.942 214.443 154.854 233.413Z" fill="#E78F2B"/>
<path d="M104.459 433.081L104.444 433.055C103.438 431.072 102.484 428.745 101.525 426.402C98.8199 419.817 96.0471 413.07 92.2736 414.018C86.999 419.026 87.3169 422.774 90.0063 425.637C93.2117 429.047 99.659 431.384 104.459 433.081ZM105.189 431.363L113.33 419.994L113.361 419.957C115.582 417.261 117.797 417.339 119.553 418.776C120.445 419.51 121.19 420.613 121.716 421.873C122.232 423.107 122.55 424.507 122.608 425.861C122.738 429.067 121.414 432.019 117.839 432.196L105.773 434.903C105.632 434.945 105.481 434.945 105.33 434.893L104.324 434.534C99.3619 432.774 92.4925 430.343 88.9744 426.605C85.7064 423.133 85.2426 418.677 91.424 412.872C91.5022 412.799 91.596 412.742 91.7055 412.711C96.7872 411.16 99.8466 418.604 102.828 425.866C103.61 427.771 104.386 429.661 105.189 431.358V431.363ZM114.472 420.827L105.653 433.149C105.569 433.263 105.46 433.347 105.34 433.394L105.622 433.492L117.588 430.811C117.635 430.801 117.677 430.796 117.724 430.796C120.335 430.687 121.294 428.406 121.195 425.923C121.148 424.741 120.867 423.508 120.408 422.42C119.965 421.358 119.36 420.447 118.652 419.869C117.515 418.937 116.035 418.947 114.466 420.832L114.472 420.827Z" fill="#621014"/>
<path d="M218.608 409.759L218.582 409.749C216.596 408.749 214.443 407.448 212.275 406.136C206.177 402.445 199.933 398.666 197.463 401.669C196.201 408.827 198.687 411.654 202.555 412.357C207.162 413.195 213.74 411.248 218.608 409.764M218.175 407.937L217.956 393.96V393.913C218.139 390.43 219.968 389.17 222.235 389.29C223.387 389.347 224.643 389.795 225.821 390.498C226.973 391.185 228.062 392.122 228.912 393.179C230.924 395.683 231.617 398.837 228.849 401.102L220.755 410.441C220.666 410.556 220.541 410.649 220.39 410.696L219.369 411.009C214.334 412.539 207.36 414.663 202.305 413.742C197.609 412.888 194.586 409.577 196.102 401.242C196.123 401.138 196.165 401.039 196.233 400.946C199.396 396.682 206.287 400.852 213.01 404.923C214.772 405.99 216.523 407.052 218.175 407.942V407.937ZM219.369 393.954L219.608 409.098C219.608 409.239 219.572 409.369 219.504 409.483L219.791 409.395L227.817 400.134C227.849 400.097 227.88 400.066 227.916 400.04C229.954 398.4 229.365 396 227.807 394.058C227.067 393.137 226.108 392.315 225.091 391.711C224.101 391.122 223.074 390.748 222.162 390.701C220.698 390.628 219.504 391.513 219.369 393.96V393.954Z" fill="#621014"/>
<path d="M138.327 116.563C138.478 116.204 138.895 116.037 139.25 116.188C139.609 116.339 139.776 116.751 139.625 117.11C136.513 124.44 132.229 132.061 126.272 137.98C120.278 143.935 112.606 148.168 102.765 148.662C102.375 148.683 102.046 148.381 102.025 147.991C102.01 147.6 102.307 147.272 102.698 147.251C112.142 146.778 119.512 142.707 125.276 136.975C131.082 131.207 135.273 123.747 138.322 116.558" fill="#621014"/>
<path d="M162.797 148.386C162.662 148.037 162.839 147.647 163.188 147.511C163.538 147.376 163.928 147.553 164.064 147.902C164.267 148.428 164.502 148.839 164.768 149.125C164.986 149.359 165.226 149.51 165.482 149.568C165.747 149.625 166.055 149.594 166.394 149.464C166.858 149.287 167.379 148.938 167.952 148.412C168.228 148.162 168.656 148.178 168.911 148.454C169.161 148.73 169.146 149.156 168.869 149.411C168.171 150.052 167.504 150.489 166.878 150.729C166.279 150.958 165.711 151.015 165.19 150.9C164.658 150.786 164.179 150.494 163.767 150.041C163.386 149.63 163.063 149.073 162.797 148.386Z" fill="#621014"/>
<path fill-rule="evenodd" clip-rule="evenodd" d="M208.627 182.141C209.242 175.019 205.896 170.006 197.004 163.936C185.647 168.684 171.387 185.306 155.803 171.058C169.182 208.253 185.209 209.31 208.627 182.136" fill="#FFBA55"/>
<mask id="mask8_60_142" style="mask-type:luminance" maskUnits="userSpaceOnUse" x="155" y="163" width="54" height="38">
<path d="M208.627 182.141C209.242 175.019 205.896 170.006 197.004 163.936C185.647 168.684 171.387 185.306 155.803 171.058C169.182 208.253 185.209 209.31 208.627 182.136" fill="white"/>
</mask>
<g mask="url(#mask8_60_142)">
<path fill-rule="evenodd" clip-rule="evenodd" d="M157.304 201.928L209.424 179.954C191.698 172.984 170.334 190.334 157.731 166.299L157.304 201.928Z" fill="#E78F2B"/>
</g>
<path fill-rule="evenodd" clip-rule="evenodd" d="M199.323 167.424C203.086 171.364 206.37 175.295 208.059 180.131L213.015 177.044C211.217 172.036 208.444 167.46 204.191 163.42L199.323 167.424Z" fill="#621014"/>
<path fill-rule="evenodd" clip-rule="evenodd" d="M97.2719 369.856C142.726 385.651 179.064 239.847 208.887 317.002C218.394 341.594 189.259 368.331 149.59 379.107C117.985 387.691 36.4789 381.091 33.7791 341.917C34.0762 334.254 40.5235 338.471 50.0719 347.149C41.4304 335.014 34.9205 323.561 35.4626 318.663C42.2382 303.056 51.8179 354.067 97.2719 369.862" fill="#F8444F"/>
<path d="M37.5735 338.07C38.5273 338.294 39.1162 339.241 38.8973 340.194C38.6732 341.147 37.7246 341.735 36.7708 341.516C31.5796 340.308 26.4875 340.282 22.3127 341.537C19.9673 342.24 17.9241 343.349 16.3449 344.879C14.7865 346.384 13.6555 348.32 13.103 350.704C12.415 353.667 12.5975 357.337 13.9317 361.751C14.9324 365.072 18.1118 369.477 22.9537 374.146C31.1679 382.075 43.9947 390.57 59.0053 395.818C73.9638 401.045 91.0696 403.028 107.899 397.973C118.964 394.647 129.93 388.264 140.11 377.749C162.954 354.14 183.077 336.019 201.398 322.65C219.806 309.219 236.433 300.562 252.189 295.955L324.605 274.778C355.1 265.86 365.545 247.525 374.056 232.59C382.02 218.612 388.384 207.446 406.876 208.451C422.095 209.273 450.72 209.252 475.779 205.916C492.536 203.687 507.64 199.997 515.88 194.13C525.46 187.305 529.614 180.152 530.01 174.295C530.172 171.906 529.703 169.751 528.718 167.955C527.743 166.164 526.252 164.706 524.371 163.707C520.347 161.562 514.525 161.468 507.974 164.555C499.291 168.647 488.523 171.963 478.265 174.556C468.097 177.127 458.355 179.012 451.705 180.246C450.746 180.423 449.823 179.788 449.651 178.83C449.474 177.872 450.11 176.95 451.069 176.779C457.631 175.56 467.247 173.702 477.411 171.13C487.485 168.58 498.029 165.342 506.468 161.364C514.114 157.757 521.087 157.96 526.034 160.599C528.53 161.932 530.511 163.879 531.819 166.273C533.122 168.658 533.747 171.469 533.539 174.54C533.075 181.344 528.478 189.496 517.924 197.014C509.157 203.255 493.5 207.128 476.233 209.424C450.928 212.787 422.048 212.818 406.694 211.985C390.375 211.1 384.491 221.424 377.131 234.344C368.302 249.837 357.466 268.854 325.59 278.177L253.174 299.354C237.824 303.842 221.568 312.322 203.493 325.508C185.329 338.762 165.357 356.754 142.663 380.206C132.026 391.2 120.533 397.879 108.921 401.372C91.299 406.672 73.4374 404.611 57.8534 399.165C42.3216 393.736 29.0362 384.933 20.5145 376.707C15.2347 371.616 11.7271 366.665 10.5544 362.777C9.03765 357.737 8.84481 353.458 9.67352 349.918C10.3876 346.842 11.8626 344.333 13.9005 342.365C15.9123 340.423 18.4506 339.028 21.3224 338.164C26.0862 336.732 31.8142 336.742 37.5943 338.086" fill="#FFBA55"/>
<path fill-rule="evenodd" clip-rule="evenodd" d="M519.836 335.639L541.55 315.419C552.286 319.147 560.636 325.347 567 333.598C551.505 352.657 537.912 375.526 517.486 389.326C489.127 371.356 518.956 355.863 519.268 348.705L519.842 335.639H519.836Z" fill="#F8444F"/>
<mask id="mask9_60_142" style="mask-type:luminance" maskUnits="userSpaceOnUse" x="505" y="315" width="62" height="75">
<path d="M519.836 335.639L541.55 315.419C552.286 319.147 560.636 325.347 567 333.598C551.505 352.657 537.912 375.526 517.486 389.326C489.127 371.356 518.956 355.863 519.268 348.705L519.842 335.639H519.836Z" fill="white"/>
</mask>
<g mask="url(#mask9_60_142)">
<path d="M562.69 328.637C548.805 350.282 531.647 371.522 512.524 387.202" stroke="#F3EFEC" stroke-width="5.67" stroke-miterlimit="22.93" stroke-linecap="round"/>
<path fill-rule="evenodd" clip-rule="evenodd" d="M506.27 353.093C507.88 351.756 510.288 351.974 511.633 353.578L516.042 358.861C517.382 360.47 517.163 362.875 515.557 364.218C513.947 365.556 511.539 365.337 510.194 363.734L505.785 358.45C504.445 356.842 504.664 354.437 506.27 353.093Z" fill="#E78F2B"/>
<path fill-rule="evenodd" clip-rule="evenodd" d="M514.15 345.696C515.761 344.358 518.169 344.577 519.513 346.18L523.923 351.464C525.262 353.073 525.043 355.478 523.438 356.821C521.827 358.159 519.419 357.94 518.075 356.337L513.665 351.053C512.326 349.444 512.545 347.039 514.15 345.696Z" fill="#E78F2B"/>
</g>
<path fill-rule="evenodd" clip-rule="evenodd" d="M319.466 154.529C344.895 195.212 374.187 188.236 394.018 165.383L376.61 156.741C358.415 170.084 341.314 163.03 324.641 147.969C323.38 143.248 319.174 136.897 315.729 133.279C308.932 126.62 305.768 131.904 314.467 141.035C306.409 139.729 302.407 133.508 297.283 127.724C292.629 131.181 299.285 136.079 301.969 139.187L295.417 132.633C294.443 132.092 293.379 134.132 297.987 141.327C299.79 144.143 294.63 135.871 293.275 139.208C296.569 151.968 306.889 155.622 319.471 154.529" fill="#FF8F69"/>
<path fill-rule="evenodd" clip-rule="evenodd" d="M521.77 336.357L540.757 317.934L472.688 225.26L444.622 253.481L521.77 336.357Z" fill="#FF8F69"/>
<path fill-rule="evenodd" clip-rule="evenodd" d="M408.435 363.807L432.66 364.562L442.949 244.407L401.174 241.705L408.435 363.807Z" fill="#FF8F69"/>
<path fill-rule="evenodd" clip-rule="evenodd" d="M407.038 162.03L438.962 161.187C435.688 175.487 417.733 179.324 404.734 186.664L407.043 162.03H407.038Z" fill="#1C1C1B"/>
<path fill-rule="evenodd" clip-rule="evenodd" d="M406.079 177.357L406.157 177.32C406.183 176.94 406.204 176.56 406.22 176.19L406.626 177.091L439.3 161.198L475.107 221.746L482.81 225.666C478.318 238.348 463.458 256.084 448.859 258.4C447.066 258.687 445.268 258.833 443.491 258.739L444.945 261.956L394.352 259.868C384.486 259.462 404.218 206.978 406.141 177.554L406.079 177.357Z" fill="#3A3937"/>
<path fill-rule="evenodd" clip-rule="evenodd" d="M443.069 156.793C437.288 128.823 420.12 111.992 397.677 100.321C377.298 118 380.749 132.972 378.669 142.581C377.757 146.803 375.771 149.995 370.231 151.926L397.552 176.997C416.175 176.981 431.587 170.703 443.069 156.793Z" fill="#5D6AB0"/>
<path fill-rule="evenodd" clip-rule="evenodd" d="M371.184 87.4056C370.82 87.7596 370.809 88.3531 371.164 88.7227L372.31 89.8992C372.665 90.2688 373.259 90.274 373.629 89.92C373.994 89.566 374.004 88.9725 373.65 88.6029L372.503 87.4264C372.149 87.062 371.554 87.0516 371.184 87.4056Z" fill="#F8444F"/>
<path fill-rule="evenodd" clip-rule="evenodd" d="M369.313 89.5918C368.896 89.9978 368.886 90.6694 369.292 91.0806L370.59 92.4185C370.997 92.835 371.669 92.8454 372.086 92.4393C372.503 92.0333 372.513 91.3617 372.107 90.9505L370.809 89.6178C370.403 89.2013 369.73 89.1909 369.319 89.597" fill="#F8444F"/>
<path fill-rule="evenodd" clip-rule="evenodd" d="M406.246 176.56L396.973 176.633C412.98 169.261 406.626 139.755 402.519 117.781C407.966 137.98 414.945 153.389 406.246 176.56Z" fill="#454F85"/>
<mask id="mask10_60_142" style="mask-type:luminance" maskUnits="userSpaceOnUse" x="293" y="127" width="102" height="57">
<path d="M319.466 154.529C344.895 195.212 374.187 188.236 394.018 165.383L376.61 156.741C358.415 170.084 341.314 163.03 324.641 147.969C323.38 143.248 319.174 136.897 315.729 133.279C308.932 126.62 305.768 131.904 314.467 141.035C306.409 139.729 302.407 133.508 297.283 127.724C292.629 131.181 299.285 136.079 301.969 139.187L295.417 132.633C294.443 132.092 293.379 134.132 297.987 141.327C299.79 144.143 294.63 135.871 293.275 139.208C296.569 151.968 306.889 155.622 319.471 154.529" fill="white"/>
</mask>
<g mask="url(#mask10_60_142)">
<path fill-rule="evenodd" clip-rule="evenodd" d="M360.854 172.494C366.728 172.494 371.492 177.372 371.492 183.39C371.492 189.408 366.728 194.286 360.854 194.286C354.98 194.286 350.216 189.408 350.216 183.39C350.216 177.372 354.98 172.494 360.854 172.494Z" fill="#F8444F"/>
</g>
<mask id="mask11_60_142" style="mask-type:luminance" maskUnits="userSpaceOnUse" x="444" y="225" width="97" height="112">
<path d="M521.77 336.357L540.757 317.934L472.688 225.26L444.622 253.481L521.77 336.357Z" fill="white"/>
</mask>
<g mask="url(#mask11_60_142)">
<path fill-rule="evenodd" clip-rule="evenodd" d="M521.77 336.358L540.757 317.934L518.904 288.183C513.16 300.016 505.008 305.846 495.397 308.028L521.77 336.358Z" fill="#FFBA55"/>
<path fill-rule="evenodd" clip-rule="evenodd" d="M465.267 262.404C472.464 262.404 478.297 268.38 478.297 275.751C478.297 283.123 472.464 289.099 465.267 289.099C458.069 289.099 452.237 283.123 452.237 275.751C452.237 268.38 458.069 262.404 465.267 262.404Z" fill="#F8444F"/>
</g>
<mask id="mask12_60_142" style="mask-type:luminance" maskUnits="userSpaceOnUse" x="401" y="241" width="42" height="124">
<path d="M408.435 363.807L432.66 364.562L442.949 244.407L401.174 241.705L408.435 363.807Z" fill="white"/>
</mask>
<g mask="url(#mask12_60_142)">
<path fill-rule="evenodd" clip-rule="evenodd" d="M408.435 363.807L432.665 364.567L435.694 329.173C425.879 332.171 416.06 331.698 406.246 326.976L408.435 363.812V363.807Z" fill="#FFBA55"/>
<path fill-rule="evenodd" clip-rule="evenodd" d="M402.524 282.019C409.722 282.019 415.554 287.995 415.554 295.366C415.554 302.738 409.722 308.714 402.524 308.714C395.326 308.714 389.494 302.738 389.494 295.366C389.494 287.995 395.326 282.019 402.524 282.019Z" fill="#F8444F"/>
</g>
<path fill-rule="evenodd" clip-rule="evenodd" d="M358.196 82.0488C378.997 53.495 379.018 85.4065 385.205 92.6738C385.205 92.6738 367.645 117.599 360.599 100.779C350.639 97.0311 362.506 95.5943 358.196 82.0488Z" fill="#FF8F69"/>
<mask id="mask13_60_142" style="mask-type:luminance" maskUnits="userSpaceOnUse" x="356" y="70" width="30" height="37">
<path d="M358.196 82.0488C378.997 53.495 379.018 85.4065 385.205 92.6738C385.205 92.6738 367.645 117.599 360.599 100.779C350.639 97.0311 362.506 95.5943 358.196 82.0488Z" fill="white"/>
</mask>
<g mask="url(#mask13_60_142)">
<path fill-rule="evenodd" clip-rule="evenodd" d="M367.473 98.6293L360.088 104.304C364.685 107.448 369.636 104.923 370.616 101.191C371.648 97.2497 369.934 96.7396 367.473 98.6293Z" fill="#F3EFEC"/>
<path fill-rule="evenodd" clip-rule="evenodd" d="M377.501 90.2842C373.671 91.6325 371.706 95.969 373.118 99.967C374.531 103.97 378.778 106.12 382.609 104.772C386.44 103.424 388.405 99.0872 386.992 95.0892C385.58 91.0859 381.332 88.9359 377.501 90.2842Z" fill="#FFBA55"/>
</g>
<path fill-rule="evenodd" clip-rule="evenodd" d="M386.31 91.1533L375.26 103.455L382.255 116.938C391.214 124.871 392.324 108.931 398.615 104.428L386.31 91.1585V91.1533Z" fill="#FF8F69"/>
<mask id="mask14_60_142" style="mask-type:luminance" maskUnits="userSpaceOnUse" x="375" y="91" width="24" height="29">
<path d="M386.31 91.1533L375.26 103.455L382.255 116.938C391.214 124.871 392.324 108.931 398.615 104.428L386.31 91.1585V91.1533Z" fill="white"/>
</mask>
<g mask="url(#mask14_60_142)">
<path fill-rule="evenodd" clip-rule="evenodd" d="M372.102 98.6445L383.62 92.7827L378.278 108.457L372.102 98.6445Z" fill="#EF5F2B"/>
</g>
<path fill-rule="evenodd" clip-rule="evenodd" d="M358.707 82.2102C362.308 77.5354 369.407 70.3098 371.336 75.0679C383.146 104.2 384.407 92.7988 396.4 102.586C411.963 102.206 407.022 87.6295 399.236 84.4591C407.314 85.3025 415.596 79.0867 416.826 72.7981C418.499 64.2814 408.398 56.0407 398.61 60.653C388.077 65.6193 389.958 63.6099 377.621 58.4041C355.131 55.0516 362.157 72.1526 346.427 78.0768C344.52 85.3649 353.146 87.9002 358.702 82.2154" fill="#3A3937"/>
<path fill-rule="evenodd" clip-rule="evenodd" d="M369.063 128.776C368.683 127.162 380.081 122.451 384.131 114.892C384.011 133.284 376.527 160.573 374.65 152.572L369.063 128.776Z" fill="#5D6AB0"/>
<mask id="mask15_60_142" style="mask-type:luminance" maskUnits="userSpaceOnUse" x="369" y="114" width="16" height="41">
<path d="M369.063 128.776C368.683 127.162 380.081 122.451 384.131 114.892C384.011 133.284 376.527 160.573 374.65 152.572L369.063 128.776Z" fill="white"/>
</mask>
<g mask="url(#mask15_60_142)">
<path fill-rule="evenodd" clip-rule="evenodd" d="M393.461 147.673L377.772 154.904L368.589 143.852C374.239 133.487 375.031 130.603 383.495 114.965L393.461 147.668V147.673Z" fill="#454F85"/>
</g>
<path fill-rule="evenodd" clip-rule="evenodd" d="M478.37 231.205L483.863 241.179L450.913 258.629L478.37 231.205Z" fill="#EF5F2B"/>
<path fill-rule="evenodd" clip-rule="evenodd" d="M402.493 259.129V266.11L442.428 261.123L402.493 259.129Z" fill="#EF5F2B"/>
<mask id="mask16_60_142" style="mask-type:luminance" maskUnits="userSpaceOnUse" x="391" y="161" width="92" height="101">
<path d="M406.079 177.357L406.157 177.32C406.183 176.94 406.204 176.56 406.22 176.19L406.626 177.091L439.3 161.198L475.107 221.746L482.81 225.666C478.318 238.348 463.458 256.084 448.859 258.4C447.066 258.687 445.268 258.833 443.491 258.739L444.945 261.956L394.352 259.868C384.486 259.462 404.218 206.978 406.141 177.554L406.079 177.357Z" fill="white"/>
</mask>
<g mask="url(#mask16_60_142)">
<path fill-rule="evenodd" clip-rule="evenodd" d="M440.218 277.381C443.903 245.787 459.127 206.509 451.267 182.604C475.764 208.878 454.749 224.636 440.218 277.381Z" fill="#1C1C1B"/>
</g>
<path fill-rule="evenodd" clip-rule="evenodd" d="M405.839 362.193L435.501 363.464C440.374 373.724 444.961 382.626 443.538 392.944C419.067 395.287 390.068 403.043 365.889 398.186C358.816 365.395 390.792 375.754 396.119 370.955L405.844 362.199L405.839 362.193Z" fill="#F8444F"/>
<mask id="mask17_60_142" style="mask-type:luminance" maskUnits="userSpaceOnUse" x="364" y="362" width="80" height="38">
<path d="M405.839 362.193L435.501 363.464C440.374 373.724 444.961 382.626 443.538 392.944C419.067 395.287 390.068 403.043 365.889 398.186C358.816 365.395 390.792 375.754 396.119 370.955L405.844 362.199L405.839 362.193Z" fill="white"/>
</mask>
<g mask="url(#mask17_60_142)">
<path d="M444.366 385.786C418.312 389.477 390.412 394.6 365.404 391.283" stroke="#F3EFEC" stroke-width="5.67" stroke-miterlimit="22.93" stroke-linecap="round"/>
<path fill-rule="evenodd" clip-rule="evenodd" d="M383.62 367.665C385.643 367.118 387.743 368.321 388.29 370.34L390.094 376.983C390.641 379.003 389.437 381.101 387.415 381.647C385.392 382.194 383.292 380.991 382.745 378.972L380.941 372.329C380.394 370.309 381.598 368.211 383.62 367.665Z" fill="#E78F2B"/>
<path fill-rule="evenodd" clip-rule="evenodd" d="M393.867 364.224C395.889 363.677 397.99 364.88 398.537 366.899L400.34 373.542C400.888 375.562 399.684 377.66 397.661 378.206C395.639 378.753 393.539 377.551 392.992 375.531L391.188 368.888C390.641 366.868 391.845 364.77 393.867 364.224Z" fill="#E78F2B"/>
</g>
<path fill-rule="evenodd" clip-rule="evenodd" d="M363.351 84.7297C362.856 84.9067 362.59 85.4534 362.767 85.9531L363.465 87.9417C363.643 88.4363 364.19 88.7018 364.69 88.5248C365.185 88.3478 365.451 87.8012 365.274 87.3014L364.576 85.3128C364.398 84.8183 363.851 84.5528 363.351 84.7297Z" fill="#621014"/>
<path fill-rule="evenodd" clip-rule="evenodd" d="M367.395 80.6897C368.505 83.0375 363.663 81.9807 362.381 84.4535C361.323 86.4942 357.597 79.1124 367.395 80.6897Z" fill="#621014"/>
<path fill-rule="evenodd" clip-rule="evenodd" d="M407.648 186.566C388.811 183.291 363.33 193.833 353.208 208.024C333.793 235.25 371.461 264.637 391.287 237.369C417.853 200.829 518.424 265.053 519.706 181.427C519.894 169.267 503.716 163.618 498.097 186.732C488.173 227.546 416.034 188.018 407.653 186.566" fill="#F8444F"/>
<path fill-rule="evenodd" clip-rule="evenodd" d="M494.344 182.463C496.012 192.099 492.557 198.955 482.977 202.49C482.977 202.49 471.198 194.817 477.76 177.424C473.892 165.596 475.618 155.758 480.47 147.033C480.845 135.33 487.574 128.245 499.629 125.038C486.12 131.785 503.637 139.921 493.974 145.877C501.829 159.422 501.037 171.458 494.339 182.468" fill="#00BEB0"/>
<path d="M482.049 192.198L478 183.634C477.895 183.411 477.989 183.14 478.218 183.031C478.443 182.926 478.714 183.02 478.823 183.249L481.971 189.902C481.804 184.379 481.882 178.845 482.237 173.301L478.745 167.533C478.615 167.32 478.682 167.038 478.901 166.908C479.115 166.778 479.396 166.846 479.527 167.064L482.346 171.729C482.435 170.558 482.534 169.386 482.643 168.215C482.993 164.576 483.467 160.937 484.082 157.293L480.652 151.624C480.522 151.411 480.59 151.129 480.809 150.999C481.022 150.869 481.304 150.937 481.434 151.155L484.322 155.929C484.655 154.055 485.02 152.181 485.427 150.302C485.427 150.234 485.442 150.161 485.468 150.099C486.698 144.44 488.278 138.771 490.232 133.086C490.316 132.852 490.571 132.722 490.811 132.805C491.045 132.888 491.175 133.143 491.092 133.383C489.357 138.427 487.918 143.461 486.761 148.485L489.878 144.633C490.034 144.44 490.321 144.409 490.514 144.565C490.706 144.721 490.738 145.007 490.581 145.2L486.313 150.479C485.833 152.696 485.406 154.909 485.031 157.121C485.114 157.298 485.077 157.507 484.942 157.642C484.561 159.917 484.238 162.187 483.962 164.456L489.638 158.798C489.815 158.621 490.102 158.621 490.279 158.798C490.456 158.975 490.456 159.261 490.279 159.438L483.795 165.904C483.707 166.705 483.623 167.507 483.545 168.309C483.389 169.912 483.264 171.515 483.154 173.114C483.18 173.207 483.17 173.306 483.139 173.389C482.982 175.805 482.883 178.215 482.831 180.626L488.768 174.707C488.945 174.53 489.231 174.53 489.409 174.707C489.586 174.884 489.586 175.17 489.409 175.347L482.81 181.927C482.711 188.95 483.04 195.957 483.717 202.948C483.743 203.198 483.556 203.417 483.311 203.443C483.06 203.463 482.841 203.281 482.815 203.036C482.466 199.429 482.211 195.816 482.06 192.203" fill="#002F40"/>
<path fill-rule="evenodd" clip-rule="evenodd" d="M60.548 346.383C64.2068 362.912 74.2504 371.621 91.9087 371.002C91.9087 371.002 105.731 350.991 83.7884 327.445C82.2092 305.966 72.9787 291.337 59.4743 280.551C51.182 262.055 35.7492 255.126 14.3278 257.885C40.3931 259.832 17.6896 284.351 37.0835 287.547C33.409 314.394 42.5874 333.15 60.548 346.389" fill="#00BEB0"/>
<path d="M85.3469 350.689L86.0401 337.471C86.0609 337.096 86.3788 336.81 86.7541 336.826C87.1294 336.846 87.416 337.164 87.4004 337.539L86.5404 353.927C88.6721 359.825 90.6371 365.78 92.4561 371.793C92.5655 372.152 92.357 372.532 91.9974 372.636C91.6378 372.746 91.2573 372.537 91.153 372.178C87.6349 360.517 83.5435 349.064 78.7641 337.867L78.7015 337.846L63.8316 331.651C63.4824 331.505 63.3209 331.11 63.4668 330.761C63.6127 330.412 64.0088 330.251 64.3581 330.396L77.9979 336.081C76.2988 332.166 74.5111 328.283 72.6295 324.431C72.5253 324.326 72.4575 324.191 72.4419 324.045C71.2171 321.541 69.9506 319.053 68.6475 316.58C67.9908 315.336 67.3237 314.092 66.6461 312.858L51.9795 306.746C51.6303 306.601 51.4687 306.205 51.6147 305.856C51.7606 305.507 52.1567 305.346 52.5059 305.492L65.5933 310.948C63.6075 307.392 61.5383 303.868 59.3754 300.375C59.0887 300.27 58.9011 299.979 58.9323 299.667C56.8632 296.35 54.7158 293.071 52.4799 289.817L42.1548 284.153C41.8265 283.971 41.7066 283.56 41.8838 283.232C42.0662 282.904 42.478 282.784 42.8063 282.961L50.7338 287.308C45.501 279.89 39.8094 272.643 33.6019 265.584C33.357 265.303 33.383 264.876 33.6645 264.626C33.9459 264.382 34.3733 264.408 34.6235 264.689C41.4929 272.508 47.7421 280.556 53.4337 288.807C53.5223 288.885 53.59 288.984 53.6265 289.088C55.5654 291.91 57.4417 294.752 59.2503 297.615L60.7774 287.803C60.8347 287.433 61.1839 287.178 61.554 287.235C61.924 287.292 62.1794 287.641 62.1221 288.011L60.35 299.375C63.7326 304.82 66.8963 310.349 69.8515 315.956C70.8522 317.856 71.8321 319.761 72.7859 321.677L74.2869 312.03C74.3443 311.661 74.6935 311.406 75.0635 311.463C75.4336 311.52 75.689 311.869 75.6316 312.239L73.8283 323.795C78.123 332.598 81.9486 341.573 85.3573 350.699" fill="#002F40"/>
<path d="M273.344 208.117C272.344 208.206 271.463 207.461 271.379 206.467C271.291 205.467 272.036 204.588 273.032 204.504C282.252 203.687 289.731 201.823 296.449 198.471C303.178 195.113 309.198 190.246 315.499 183.431C316.177 182.697 317.323 182.645 318.063 183.327C318.798 184.004 318.851 185.149 318.168 185.888C311.559 193.036 305.211 198.159 298.065 201.725C290.914 205.291 283.023 207.269 273.344 208.128" fill="#621014"/>
<path d="M253.414 206.467C252.434 206.27 251.798 205.317 251.996 204.338C252.194 203.36 253.148 202.725 254.128 202.922C255.42 203.183 256.796 203.443 258.25 203.698C259.626 203.937 260.935 204.146 262.175 204.323C263.165 204.458 263.858 205.374 263.723 206.363C263.587 207.352 262.67 208.045 261.68 207.909C260.325 207.717 258.98 207.503 257.641 207.274C256.379 207.056 254.972 206.785 253.419 206.473" fill="#621014"/>
<path d="M271.244 159.136C267.126 159.678 263.181 159.407 259.407 158.324C255.634 157.241 252.241 155.523 249.228 153.17C246.216 150.817 243.704 147.959 241.702 144.602C239.701 141.239 238.434 137.553 237.903 133.534C237.371 129.515 237.637 125.626 238.7 121.857C239.763 118.094 241.442 114.684 243.745 111.628C246.049 108.577 248.879 106.037 252.241 104.012C255.603 101.987 259.345 100.706 263.462 100.16C267.199 99.6651 270.879 99.8786 274.507 100.784C278.134 101.695 281.579 103.247 284.842 105.444L274.673 117C271.635 115.407 268.586 114.809 265.521 115.215C263.509 115.48 261.69 116.11 260.069 117.099C258.448 118.094 257.099 119.338 256.03 120.842C254.962 122.347 254.185 124.018 253.695 125.855C253.205 127.698 253.09 129.572 253.341 131.488C253.601 133.451 254.206 135.257 255.154 136.907C256.103 138.558 257.286 139.958 258.704 141.108C260.121 142.259 261.732 143.118 263.541 143.685C265.344 144.253 267.252 144.399 269.263 144.138C271.562 143.836 273.636 143.029 275.481 141.712C277.332 140.401 278.869 138.688 280.104 136.579L293.228 144.633C290.737 148.657 287.604 151.931 283.815 154.451C280.031 156.971 275.841 158.532 271.244 159.136Z" fill="#FFBA55"/>
<path d="M303.147 93.4858C293.583 84.0165 280.37 78.1548 265.777 78.1548C251.183 78.1548 237.97 84.0113 228.406 93.4858C218.842 102.955 212.932 116.043 212.932 130.494C212.932 144.945 218.848 158.033 228.406 167.502C237.97 176.971 251.183 182.833 265.777 182.833C280.37 182.833 293.583 176.976 303.147 167.502C312.711 158.033 318.621 144.945 318.621 130.494C318.621 116.043 312.706 102.955 303.147 93.4858ZM265.777 77.0928C280.662 77.0928 294.135 83.069 303.892 92.731C313.649 102.393 319.684 115.746 319.684 130.489C319.684 145.231 313.649 158.584 303.892 168.246C294.135 177.908 280.657 183.885 265.777 183.885C250.896 183.885 237.418 177.908 227.661 168.246C217.904 158.584 211.869 145.231 211.869 130.489C211.869 115.746 217.904 102.393 227.661 92.731C237.418 83.069 250.896 77.0928 265.777 77.0928Z" fill="#FFBA55"/>
<path fill-rule="evenodd" clip-rule="evenodd" d="M39.8094 336.326C36.5623 334.139 32.1634 334.998 29.9743 338.236C27.7853 341.474 28.6452 345.873 31.8871 348.06C35.1342 350.246 39.5332 349.387 41.7222 346.149C43.9113 342.911 43.0513 338.512 39.8094 336.326Z" fill="#64A693"/>
<path fill-rule="evenodd" clip-rule="evenodd" d="M25.4764 330.865C23.5792 329.584 20.9993 330.089 19.7223 331.984C18.4402 333.879 18.9457 336.456 20.8429 337.731C22.7401 339.012 25.32 338.507 26.597 336.612C27.8791 334.717 27.3736 332.14 25.4764 330.865Z" fill="#64A693"/>
<path fill-rule="evenodd" clip-rule="evenodd" d="M28.9267 315.539C28.2752 315.102 27.3892 315.274 26.9514 315.924C26.5136 316.575 26.6856 317.46 27.3371 317.897C27.9886 318.335 28.8746 318.163 29.3124 317.512C29.7502 316.861 29.5782 315.977 28.9267 315.539Z" fill="#64A693"/>
<path fill-rule="evenodd" clip-rule="evenodd" d="M519.8 154.487C519.148 154.05 518.262 154.222 517.825 154.873C517.387 155.523 517.559 156.408 518.21 156.846C518.862 157.283 519.748 157.111 520.186 156.46C520.623 155.81 520.451 154.925 519.8 154.487Z" fill="#64A693"/>
<path fill-rule="evenodd" clip-rule="evenodd" d="M516.35 169.813C514.452 168.533 511.872 169.038 510.596 170.933C509.313 172.827 509.819 175.404 511.716 176.68C513.613 177.96 516.193 177.455 517.47 175.56C518.752 173.666 518.247 171.089 516.35 169.813Z" fill="#64A693"/>
<path fill-rule="evenodd" clip-rule="evenodd" d="M530.677 175.274C527.43 173.088 523.031 173.947 520.842 177.185C518.653 180.423 519.513 184.822 522.755 187.008C526.002 189.194 530.401 188.335 532.59 185.097C534.779 181.859 533.919 177.461 530.677 175.274Z" fill="#64A693"/>
</g>
<defs>
<clipPath id="clip0_60_142">
<rect width="567" height="471" fill="white"/>
</clipPath>
</defs>
</svg>
